<svg width="80" height="80" viewBox="0 0 80 80" fill="none" xmlns="http://www.w3.org/2000/svg">
<g clip-path="url(#clip0_1_8399)">
<rect x="14.6938" y="27.7551" width="52.2449" height="21.2245" fill="white"/>
<path d="M71.7854 22.4752C71.7918 20.3138 71.0501 19.4468 68.7681 19.6101C59.9572 20.251 51.1462 20.8102 42.3289 21.338C31.6607 21.9789 20.9861 22.582 10.3115 23.1538C8.80921 23.2355 8.19435 23.7947 8.20069 25.2964C8.22604 33.9923 8.22604 42.6944 8.16265 51.3903C8.14998 53.0365 8.80921 53.5643 10.4066 53.602C12.5428 53.646 14.6663 53.9287 16.9926 54.1298V62.0465C20.3078 59.6275 23.0842 57.5604 25.9114 55.556C26.4819 55.1539 27.2298 54.7141 27.8827 54.7392C32.5608 54.9152 37.2325 55.1853 41.8979 55.4618C50.937 55.9959 59.9825 56.5174 69.0217 57.1394C71.0882 57.2776 71.8361 56.5174 71.8298 54.5382C71.7791 43.8505 71.7474 33.1629 71.7791 22.4752H71.7854ZM27.458 46.3952H17.0877V29.5061H20.9798V43.2034H27.458V46.3952ZM34.4814 46.3952H30.5894V29.5061H34.4814V46.3952ZM45.9801 46.3952H41.3908L36.8015 29.5061H40.8837L43.6791 40.8158L46.8675 29.5061H50.5567L45.9674 46.3952H45.9801ZM63.995 33.3639H56.5469V36.1348H62.6702V39.622H56.5469V43.2034H63.9253V46.3952H53.1493V29.5061H63.995V33.3639Z" fill="#F4341B"/>
</g>
<defs>
<clipPath id="clip0_1_8399">
<rect width="63.6735" height="42.449" fill="white" transform="translate(8.16248 19.5918)"/>
</clipPath>
</defs>
</svg>
