<svg width="46" height="46" viewBox="0 0 46 46" fill="none" xmlns="http://www.w3.org/2000/svg">
<path d="M37.6701 8.66239C35.3496 7.54076 31.159 6.1875 23.0009 6.1875C14.8427 6.1875 10.6522 7.54076 8.33168 8.66239C7.16929 9.22428 6.54736 10.2301 6.54736 11.2938V19.8809C6.54736 20.8653 7.34515 21.6652 8.33168 21.6652H37.6701C38.6545 21.6652 39.4544 20.8674 39.4544 19.8809V11.2938C39.4544 10.228 38.8325 9.22214 37.6701 8.66239Z" fill="#3D3D3D"/>
<path d="M45.7512 37.842L38.8648 26.9988L23.0011 27.0288L7.13732 26.9988L0.25094 37.842C-0.216587 38.5604 -0.0793238 39.1695 1.07663 39.1352H44.9234C46.0793 39.1695 46.2166 38.5626 45.7491 37.842H45.7512Z" fill="black"/>
<path d="M38.691 18.3946C38.4722 18.0022 38.009 17.6483 37.5779 17.4467C36.8252 17.0971 33.5718 15.4651 23.0009 15.4651C12.4301 15.4651 9.17673 17.0971 8.42397 17.4467C7.9929 17.6462 7.52966 18 7.31091 18.3946L3.2876 25.5984H42.7121L38.6888 18.3946H38.691Z" fill="#F4EFE9"/>
<path d="M22.231 16.4752C22.1195 16.205 22.3705 15.5059 22.334 14.7231C22.2975 13.9403 21.9823 13.2669 22.0681 12.9881C22.1538 12.7071 22.5291 12.349 22.2439 12.1002C21.9587 11.8514 21.4311 11.9651 20.7513 12.053C20.0693 12.1431 18.8876 11.6884 16.4856 11.8C14.0836 11.9115 12.9491 12.4755 12.2629 12.4498C11.5766 12.424 11.0404 12.3597 10.7809 12.6364C10.5193 12.9109 10.9289 13.2326 11.0383 13.5049C11.1498 13.7751 10.8989 14.4743 10.9353 15.2571C10.9718 16.0399 11.287 16.7133 11.2013 16.9921C11.1155 17.273 10.7402 17.6312 11.0254 17.88C11.3106 18.1287 11.8382 18.0151 12.5181 17.9271C13.2001 17.8371 14.3817 18.2917 16.7837 18.1802C19.1857 18.0687 20.3202 17.5046 21.0065 17.5304C21.6928 17.5561 22.2289 17.6205 22.4884 17.3438C22.75 17.0693 22.3404 16.7476 22.231 16.4752Z" fill="#FFFDFA"/>
<path d="M22.42 17.3007C20.5027 17.3544 18.6755 16.6187 16.4429 16.8032C14.0624 17.0005 12.8357 17.7854 11.135 17.9506C11.135 17.9506 13.404 18.1071 16.5287 17.942C19.6534 17.7747 22.4221 17.3007 22.4221 17.3007H22.42Z" fill="#C1BDB9"/>
<path d="M23.7707 16.4752C23.8822 16.205 23.6313 15.5059 23.6678 14.7231C23.7042 13.9403 24.0195 13.2669 23.9337 12.9881C23.8479 12.7071 23.4726 12.349 23.7578 12.1002C24.0431 11.8514 24.5706 11.9651 25.2505 12.053C25.9325 12.1431 27.1142 11.6884 29.5161 11.8C31.9181 11.9115 33.0526 12.4755 33.7389 12.4498C34.4252 12.424 34.9613 12.3597 35.2208 12.6364C35.4825 12.9109 35.0729 13.2326 34.9635 13.5049C34.852 13.7751 35.1029 14.4743 35.0664 15.2571C35.03 16.0399 34.7147 16.7133 34.8005 16.9921C34.8863 17.273 35.2616 17.6312 34.9763 17.88C34.6911 18.1287 34.1635 18.0151 33.4837 17.9271C32.8017 17.8371 31.62 18.2917 29.218 18.1802C26.8161 18.0687 25.6816 17.5046 24.9953 17.5304C24.309 17.5561 23.7728 17.6205 23.5133 17.3438C23.2517 17.0693 23.6613 16.7476 23.7707 16.4752Z" fill="#FFFDFA"/>
<path d="M23.5817 17.3007C25.499 17.3544 27.3262 16.6187 29.5588 16.8032C31.9393 17.0005 33.166 17.7854 34.8667 17.9506C34.8667 17.9506 32.5977 18.1071 29.473 17.942C26.3483 17.7747 23.5796 17.3007 23.5796 17.3007H23.5817Z" fill="#C1BDB9"/>
<path d="M43.8943 25.2039C43.5468 24.6527 42.5217 23.0507 41.4752 21.4679C41.3057 21.2149 41.0741 21.0111 40.7974 20.8803C37.8765 19.497 31.1595 18.8987 23.0014 18.8987C14.8433 18.8987 8.12631 19.497 5.20534 20.8803C4.93083 21.0111 4.69706 21.2149 4.52763 21.4679C3.4832 23.0507 2.45594 24.6527 2.10851 25.2039C1.65385 25.9287 1.91549 27.4836 1.91549 27.4836H44.083C44.083 27.4836 44.3468 25.9266 43.8921 25.2039H43.8943Z" fill="#FF7040"/>
<path d="M43.8961 25.2082C43.7996 25.056 43.6517 24.8201 43.4629 24.5284C43.8961 25.2082 42.7509 25.2833 41.8008 25.101C37.9105 24.3547 29.3921 24.0244 23.0011 24.0244C16.6101 24.0244 8.09172 24.3568 4.20138 25.101C3.25131 25.2833 2.10608 25.2104 2.5393 24.5284C2.35271 24.8222 2.20259 25.056 2.10608 25.2082C1.65571 25.9245 1.9152 27.4644 1.9152 27.4644H44.0849C44.0849 27.4644 44.3444 25.9245 43.894 25.2082H43.8961Z" fill="#F2511B"/>
<path d="M1.20337 28.7983V38.3333C1.20337 38.507 1.34492 38.6486 1.51864 38.6486H4.94573C5.11945 38.6486 5.261 38.507 5.261 38.3333V36.9071C5.261 36.5425 5.56124 36.2852 5.92368 36.2444C5.92368 36.2444 12.4605 35.6118 23.0013 35.6118C33.5421 35.6118 40.0789 36.2444 40.0789 36.2444C40.4521 36.2873 40.7416 36.5404 40.7416 36.9071V38.3333C40.7416 38.507 40.8831 38.6486 41.0568 38.6486H44.4839C44.6577 38.6486 44.7992 38.507 44.7992 38.3333V28.7983C44.7992 27.9061 44.1494 27.3078 43.1843 27.1834C43.1843 27.1834 33.5314 26.0125 23.0013 26.0125C12.4712 26.0125 2.81827 27.1834 2.81827 27.1834C1.8532 27.325 1.20337 27.9061 1.20337 28.7983Z" fill="#3D3D3D"/>
<path d="M41.6058 21.3499C41.2541 20.8116 40.8788 20.239 40.5099 19.6835C38.6677 17.9485 31.717 17.2151 23.0034 17.2151C14.2898 17.2151 7.3391 17.9485 5.49688 19.6835C5.128 20.239 4.7527 20.8116 4.40098 21.3499C4.24442 21.5923 4.30017 21.8153 4.30017 21.8153L4.5275 21.4722C4.69693 21.217 4.9307 21.0111 5.20736 20.8802C8.12833 19.497 14.8453 18.8986 23.0034 18.8986C31.1615 18.8986 37.8785 19.497 40.7995 20.8802C41.0761 21.0111 41.312 21.217 41.4793 21.4722L41.7066 21.8153C41.7066 21.8153 41.7645 21.5923 41.6058 21.3499Z" fill="#FED672"/>
</svg>
