<svg width="46" height="46" viewBox="0 0 46 46" fill="none" xmlns="http://www.w3.org/2000/svg">
<path d="M42.0395 38.136C46.0602 33.218 38.1306 30.5474 33.6632 29.8269C27.4981 28.6787 28.1013 24.152 31.988 21.7876C35.8746 19.4232 27.3641 15.4375 14.699 17.4642C2.03382 19.4908 -0.780651 25.7735 4.58026 27.665C8.86898 29.1783 7.93082 31.1779 6.92565 31.9885L3.97711 34.4881C-3.46115 41.5813 37.0137 44.2835 42.0395 38.136Z" fill="#00DE5A"/>
<path d="M14.7383 17.7114C21.0414 16.7028 26.2944 17.1934 29.4736 18.2173C30.2674 18.4729 30.9269 18.7604 31.4385 19.062C31.9525 19.3651 32.3034 19.6745 32.499 19.9683C32.6902 20.2553 32.7283 20.5161 32.6445 20.7583C32.5566 21.0127 32.3184 21.2938 31.8584 21.5737C29.8739 22.781 28.6613 24.5804 28.8066 26.2847C28.9548 28.0209 30.4878 29.4899 33.6172 30.0728L33.623 30.0737C35.8438 30.4319 38.9009 31.2724 40.8945 32.6147C41.8916 33.2861 42.5879 34.0595 42.8135 34.9272C43.0351 35.7801 42.8177 36.7892 41.8457 37.978C41.265 38.6881 40.1415 39.3005 38.5801 39.7974C37.0279 40.2912 35.0808 40.6596 32.8975 40.9087C28.5316 41.4068 23.2502 41.4237 18.3545 41.0278C13.4532 40.6315 8.96463 39.8231 6.17383 38.6831C4.7676 38.1087 3.85042 37.473 3.49023 36.814C3.31673 36.4964 3.27252 36.1728 3.36523 35.8315C3.4598 35.4837 3.70239 35.0961 4.14453 34.6733L7.08203 32.1821L7.08301 32.1831C7.61706 31.7523 8.18859 30.962 7.98242 30.0356C7.7767 29.1119 6.82548 28.1922 4.66309 27.4292C3.36536 26.9712 2.61569 26.2666 2.35645 25.48C2.09876 24.6978 2.30111 23.758 3.07617 22.77C4.63463 20.7837 8.42808 18.7212 14.7383 17.7114Z" stroke="black" stroke-opacity="0.1" stroke-width="0.5"/>
<path d="M24.5452 7.10552L14.0551 13.211L14.0551 1L24.5452 7.10552Z" fill="#FF3D00"/>
<path d="M14.3049 12.7764L14.3049 1.43457L24.0491 7.10547L14.3049 12.7764Z" stroke="black" stroke-opacity="0.1" stroke-width="0.5"/>
<path d="M13.6113 1.28223V34.5812" stroke="black" stroke-linecap="round"/>
<ellipse cx="17.7916" cy="34.8309" rx="5.02034" ry="1.2794" fill="black"/>
</svg>
