<svg width="46" height="46" viewBox="0 0 46 46" fill="none" xmlns="http://www.w3.org/2000/svg">
<path d="M12.4529 43.0116L16.5009 42.4659C17.0816 42.4023 17.3647 42.2484 17.7668 42.0514L30.666 34.6038L26.2199 33.6375L12.4529 43.0116Z" fill="black"/>
<path d="M6.28947 38.529C8.24886 41.9225 11.3223 43.8162 13.1545 42.7576C14.9867 41.6989 14.8841 38.092 12.9247 34.6985C10.9653 31.305 7.89186 29.4113 6.05967 30.47C4.22749 31.5286 4.33008 35.1355 6.28947 38.529Z" fill="#252E3D"/>
<path d="M26.9622 26.5918C25.0028 23.1983 21.9293 21.3046 20.0972 22.3633L6.05933 30.4675C7.89151 29.4088 10.965 31.3025 12.9244 34.696C14.8838 38.0895 14.9863 41.6984 13.1542 42.755L27.192 34.6509C29.0242 33.5922 28.9216 29.9853 26.9622 26.5918Z" fill="#495670"/>
<path d="M25.9525 25.0977L20.7678 27.7813C18.4843 28.9405 17.8318 30.7952 18.5027 32.5617C19.0834 34.0943 19.9779 38.8173 18.2955 39.7898L27.1918 34.6544C29.0239 33.5958 28.9214 29.9889 26.962 26.5954C26.6501 26.0558 26.3116 25.5552 25.9525 25.0977Z" fill="black"/>
<path d="M29.3073 38.3391C23.8312 38.3391 20.0828 40.0543 20.0828 42.1696C20.0828 44.2849 23.8292 46.0001 29.3073 46.0001C34.7854 46.0001 39.2232 44.2849 39.2232 42.1696C39.2232 40.0543 34.7833 38.3391 29.3073 38.3391Z" fill="black"/>
<path d="M27.1798 25.5918C23.261 25.5918 20.085 27.307 20.085 29.4223C20.085 31.5376 23.261 33.2528 27.1798 33.2528C31.0986 33.2528 34.2746 31.5376 34.2746 29.4223C34.2746 27.307 31.0986 25.5918 27.1798 25.5918Z" fill="#495670"/>
<path d="M27.1798 33.2526C23.261 33.2526 20.085 31.5374 20.085 29.4221V42.1693C20.085 44.2846 23.261 45.9998 27.1798 45.9998C31.0986 45.9998 34.2746 44.2846 34.2746 42.1693V29.4221C34.2746 31.5374 31.0986 33.2526 27.1798 33.2526Z" fill="#252E3D"/>
<path d="M27.1794 21.9089C23.6382 21.9089 20.7678 23.3841 20.7678 25.206C20.7678 27.0279 23.6382 28.5031 27.1794 28.5031C30.7207 28.5031 33.591 27.0279 33.591 25.206C33.591 23.3841 30.7207 21.9089 27.1794 21.9089Z" fill="#E9EDF5"/>
<path d="M27.1794 28.5017C23.6382 28.5017 20.7678 27.0265 20.7678 25.2046V29.2628C20.7678 31.0827 23.6382 32.5599 27.1794 32.5599C30.7207 32.5599 33.591 31.0847 33.591 29.2628V25.2046C33.591 27.0244 30.7207 28.5017 27.1794 28.5017Z" fill="#CFD7DE"/>
<path d="M27.2124 10.845C23.9666 10.845 21.3342 12.1498 21.3342 13.7584C21.3342 15.3669 23.9666 16.6718 27.2124 16.6718C30.4582 16.6718 33.0906 15.3669 33.0906 13.7584C33.0906 12.1498 30.4582 10.845 27.2124 10.845Z" fill="#E9EDF5"/>
<path d="M27.2124 16.6722C23.9666 16.6722 21.3342 15.3673 21.3342 13.7588V25.1395C21.3342 26.7481 23.9666 28.0529 27.2124 28.0529C30.4582 28.0529 33.0906 26.7481 33.0906 25.1395V13.7588C33.0906 15.3673 30.4582 16.6722 27.2124 16.6722Z" fill="#CFD7DE"/>
<path d="M27.2124 11.3862C24.4118 11.3862 22.1426 12.449 22.1426 13.758C22.1426 15.067 24.4118 16.1297 27.2124 16.1297C30.013 16.1297 32.2822 15.067 32.2822 13.758C32.2822 12.449 30.013 11.3862 27.2124 11.3862Z" fill="black"/>
<path d="M31.6216 12.5878C31.7262 6.68299 30.9404 3.07407 30.0069 0.880807C29.9043 0.638708 29.7402 0.425334 29.5371 0.255044C28.78 -0.378929 26.8514 0.166816 25.2161 1.91691C25.0212 2.12413 24.8468 2.32725 24.6889 2.52011C23.8682 3.52749 23.3881 4.73388 23.1337 6.02645C22.8033 7.70063 22.7397 9.95134 22.8074 12.5878C22.8074 12.5919 22.8074 12.6473 22.8115 12.7375C22.8238 13.2115 22.8423 13.6936 22.8628 14.1901C22.8628 14.2024 22.8669 14.2148 22.8669 14.2271C22.8772 14.4856 22.8916 14.7523 22.9039 15.0088C23.7225 15.6263 25.132 16.0531 26.7611 16.1208C26.7652 16.1208 26.7693 16.1208 26.7734 16.1208C26.917 16.1269 27.0627 16.131 27.2104 16.131C27.3581 16.131 27.5059 16.1269 27.6515 16.1208C27.6536 16.1208 27.6556 16.1208 27.6597 16.1208C29.2909 16.0531 30.7024 15.6263 31.5211 15.0088C31.6298 13.8824 31.6216 12.596 31.6216 12.5898V12.5878Z" fill="#F0085C"/>
<path d="M25.3865 1.73781C23.9236 3.20067 23.2671 4.91589 23.9195 5.56832C24.572 6.22076 26.2872 5.56422 27.7501 4.10136C29.213 2.63851 29.8695 0.92329 29.2171 0.270852C28.5646 -0.381587 26.8494 0.274954 25.3865 1.73781Z" fill="#FF4D96"/>
</svg>
