<svg width="46" height="46" viewBox="0 0 46 46" fill="none" xmlns="http://www.w3.org/2000/svg">
<path d="M45.998 37.0309C45.998 37.921 44.4359 39.4654 41.1609 39.7647C38.5937 40.0006 36.7956 39.1125 34.3751 39.7369C31.1735 40.5636 29.6213 42.6095 24.0388 42.6095C20.9581 42.6095 19.9352 41.6757 15.4708 41.2773C12.3425 40.9978 10.82 41.8224 8.90898 41.5013C6.75013 41.1405 5.76289 39.1422 4.27806 38.7913C2.02009 38.26 0 38.5812 0 37.6415C0 37.4036 0.281504 36.6265 1.42536 36.0358C3.92915 34.7413 12.3762 33.3337 24.0864 33.3337C35.7965 33.3337 42.7548 34.2536 45.1713 35.7959C46.0119 36.3312 46 36.7752 46 37.027L45.998 37.0309Z" fill="#F2AF53"/>
<path d="M45.6571 36.5751C45.6571 37.4652 43.8273 38.843 40.6415 39.1424C38.1437 39.3763 34.7775 37.826 32.4224 38.4505C29.3081 39.2772 30.2477 42.2785 24.0309 41.9871C21.0374 41.8464 20.3376 39.9056 15.9942 39.5091C12.9512 39.2296 11.171 41.2001 9.31145 40.8809C7.21207 40.5201 6.86712 37.8439 5.46159 37.3503C3.32652 36.6009 0.642334 37.9608 0.642334 37.0212C0.642334 36.7298 0.8604 36.4324 1.27473 36.139C3.51287 34.5412 11.4544 33.0048 21.2317 32.751C22.1634 32.7273 23.113 32.7134 24.0765 32.7134C36.9939 32.7134 45.659 34.555 45.659 36.5751H45.6571Z" fill="#FFC86D"/>
<path d="M24.772 34.3506C24.772 34.9909 23.6659 35.5797 21.8123 36.0475C20.3592 36.4162 18.6662 36.5729 16.428 36.8821C14.287 37.1795 10.5799 40.3533 6.4228 36.8821C5.07475 35.7561 3.07251 36.4618 1.71258 36.218C1.56191 36.1902 1.52821 35.988 1.665 35.9147C4.7873 34.2574 12.2412 32.9312 21.2156 32.7646C22.1017 32.7488 22.9839 32.9292 23.7769 33.3217C24.1872 33.5239 24.4806 33.74 24.6372 33.964C24.7245 34.0889 24.772 34.2158 24.772 34.3466V34.3506Z" fill="black"/>
<path d="M22.6393 10.3081C22.1715 10.4072 21.7036 10.5063 21.2298 10.6114C18.9877 11.109 16.8428 11.6443 14.8009 12.2033C13.994 12.3381 13.1436 12.5046 12.2594 12.7029C11.857 14.6773 11.5735 16.4536 11.4565 17.2347L24.3541 14.8974C24.2213 14.2432 23.9953 13.3194 23.6405 12.4095C23.3372 11.6284 22.9902 10.9286 22.6374 10.3081H22.6393Z" fill="black"/>
<path d="M11.4564 17.2346L11.3395 18.654C11.3018 19.108 11.0203 19.5064 10.604 19.6908C9.84076 20.0298 8.70087 20.3966 7.29534 20.4005C5.58649 20.4045 4.29 19.8712 3.63184 19.5441L4.56951 17.0046L11.4584 17.2326L11.4564 17.2346Z" fill="black"/>
<path d="M34.4626 11.4221V13.2083C34.4586 13.6067 34.2663 13.9775 33.9412 14.2074C33.1086 14.7942 31.9509 15.4722 30.474 15.9777C29.0347 16.4694 27.7303 16.6478 26.7113 16.6973C26.182 16.7231 25.6706 16.4971 25.3336 16.0867L24.3542 14.8993L34.4626 11.4241V11.4221Z" fill="black"/>
<path d="M28.1723 9.25543C26.3881 9.55675 24.5405 9.90566 22.6394 10.3081C22.9923 10.9306 23.3392 11.6284 23.6425 12.4095C23.9954 13.3194 24.2214 14.2412 24.3562 14.8974L32.9519 11.9416L30.121 9.25146C29.4708 9.25146 28.8226 9.25543 28.1723 9.25741V9.25543Z" fill="black"/>
<path d="M4.10379 15.3412L4.56768 17.0065L11.4566 17.2344C11.5755 16.4534 11.859 14.6791 12.2595 12.7026C11.0066 12.9841 9.68628 13.333 8.3085 13.7731C6.78006 14.2608 5.37452 14.7961 4.10181 15.3393L4.10379 15.3412Z" fill="black"/>
<path d="M4.10357 15.3413L4.69829 17.4704C4.81327 17.8828 4.79741 18.3268 4.62494 18.7193C4.46437 19.0861 4.20268 19.3616 3.87558 19.4846C3.81809 19.5064 3.73682 19.5321 3.62977 19.546C3.36611 19.5817 3.10641 19.4469 2.98945 19.209C2.98945 19.209 2.98945 19.207 2.98945 19.205C2.65244 18.5152 2.57909 17.8372 2.58504 17.3217C3.09254 16.6616 3.59805 16.0015 4.10555 15.3413H4.10357Z" fill="#003EF8"/>
<path d="M4.10376 15.3414C4.18108 15.0024 5.34674 12.6493 6.63333 10.9067C5.39233 12.4074 3.2989 15.1471 2.58325 17.3218L4.10376 15.3414Z" fill="#0075FF"/>
<path d="M36.6254 9.23145L37.0358 11.2317C37.2618 12.2408 36.8732 13.4104 36.2091 13.6443C35.4657 13.906 35.3686 13.5194 35.3686 13.5194L34.4646 11.422L36.6274 9.23145H36.6254Z" fill="black"/>
<path d="M14.8009 12.2031L14.6403 14.1439C14.5908 14.7466 14.2062 15.2719 13.6452 15.4979C12.4498 15.9796 11.0898 16.4495 9.5713 16.842C8.25299 17.183 7.01596 17.4169 5.88797 17.5755C5.59853 17.6171 5.31306 17.4744 5.16835 17.2206C4.8135 16.5942 4.45666 15.9677 4.10181 15.3413C5.37452 14.7961 6.78006 14.2629 8.3085 13.7732C10.6577 13.0238 12.8463 12.5302 14.7989 12.2031H14.8009Z" fill="#E2E9F2"/>
<path d="M24.3541 14.8972L24.1777 16.7885C24.1381 17.068 23.9537 17.3039 23.692 17.409C22.3519 17.9502 20.6708 18.4973 18.6943 18.8601C16.595 19.2467 14.7236 19.32 13.207 19.2705C12.8244 19.2586 12.4735 19.0524 12.2733 18.7233C12.0215 18.309 11.4565 17.2325 11.4565 17.2325L24.3541 14.8953V14.8972Z" fill="black"/>
<path d="M25.0498 36.2023L18.375 3.21691C18.3274 2.98497 18.1014 2.83628 17.8695 2.88386C17.6376 2.93144 17.4889 3.15744 17.5365 3.38938L24.2033 36.3431C24.2271 36.462 24.4412 36.47 24.691 36.4343C24.8635 36.4105 25.0756 36.3332 25.0498 36.2023Z" fill="#D48F65"/>
<path d="M20.3255 17.183L20.9421 15.9004L20.4128 13.2876L19.6079 13.6365L20.3255 17.183Z" fill="black"/>
<path d="M28.1724 9.25537L28.0019 10.8651C27.994 10.9325 27.992 11.0019 27.988 11.0693C27.9801 11.2398 27.9524 11.4103 27.8949 11.5728C27.7006 12.114 27.2565 12.5382 26.6876 12.6968C25.4743 13.0319 24.1877 13.351 22.8337 13.6405C21.0714 14.0171 19.3923 14.3006 17.8123 14.5127C17.1859 14.596 16.5594 14.3462 16.1689 13.8506C15.7189 13.2797 15.253 12.7742 14.803 12.2032C16.8449 11.6462 18.9879 11.1109 21.232 10.6113C23.6347 10.0781 25.9521 9.63005 28.1744 9.25537H28.1724Z" fill="#003EF8"/>
<path d="M24.4752 33.3635C24.4217 33.4527 24.3107 33.6054 24.1164 33.7303C23.9558 33.8334 23.8032 33.875 23.7061 33.8928C23.7992 34.3528 23.8924 34.8127 23.9856 35.2726L24.7944 34.9435L24.4752 33.3635Z" fill="black"/>
<path d="M34.1791 7.38795C33.2513 6.75952 32.3552 6.22626 31.5167 5.77228C31.1935 5.59783 30.8427 5.48483 30.4799 5.43725C28.8107 5.21522 27.0602 5.02293 25.2324 4.87226C23.1291 4.69781 21.1149 4.59473 19.2019 4.54517C20.0464 4.59473 20.9702 4.69187 21.9575 4.86434C22.6335 4.98328 23.2659 5.12602 23.8546 5.28065C24.4077 5.42536 24.9172 5.69893 25.3454 6.07758C25.7201 6.40864 26.1106 6.77935 26.5031 7.19764C27.1871 7.92122 27.7342 8.62697 28.1704 9.25737C30.9874 9.24944 33.8064 9.24151 36.6234 9.23358C35.9038 8.63291 35.089 8.00845 34.1751 7.38994L34.1791 7.38795Z" fill="#F6F9FF"/>
<path d="M36.6254 9.23145C33.8084 9.23937 30.9894 9.2473 28.1724 9.25523L29.2468 11.2813C29.5521 11.8581 30.1132 12.2546 30.7594 12.3518C31.6832 12.4905 32.8489 12.548 34.1593 12.3379C34.8174 12.2328 35.4082 12.0762 35.9236 11.9018C36.3498 11.759 36.6353 11.3566 36.6333 10.9086C36.6313 10.3495 36.6274 9.23145 36.6274 9.23145H36.6254Z" fill="#E2E9F2"/>
<path d="M12.4893 7.07277C11.1076 7.74679 9.79921 8.43073 8.56417 9.11466C8.07649 9.38427 7.62054 9.71336 7.25379 10.1316C5.74715 11.8484 4.19492 14.9489 4.10571 15.3414C5.37842 14.7963 6.78197 14.263 8.31239 13.7753C10.6616 13.026 12.8501 12.5323 14.8028 12.2052C14.7295 11.4579 14.6997 10.542 14.8028 9.5052C14.8563 8.9759 14.9357 8.48822 15.0308 8.04218C15.1914 7.28093 15.5304 6.56528 16.0438 5.97848C16.0736 5.94478 16.1013 5.91306 16.133 5.87936C16.6207 5.35005 17.15 5.00908 17.5921 4.79102C15.9645 5.45711 14.2577 6.21439 12.4913 7.07476L12.4893 7.07277Z" fill="#F6F9FF"/>
<path d="M28.1724 9.25542C27.7362 8.62502 27.1871 7.91927 26.5052 7.19569C26.1107 6.7774 25.7221 6.40669 25.3474 6.07563C24.9192 5.69699 24.4078 5.42341 23.8567 5.2787C23.2679 5.12407 22.6355 4.98133 21.9595 4.86239C20.7443 4.64829 19.6242 4.54917 18.631 4.51745C18.3674 4.50952 18.1057 4.5571 17.8638 4.66019C17.3781 4.86636 16.7259 5.2331 16.1332 5.87541C16.1034 5.90911 16.0737 5.94083 16.044 5.97453C15.5325 6.56132 15.1935 7.27697 15.0309 8.03822C14.9358 8.48228 14.8565 8.97194 14.803 9.50124C14.6979 10.538 14.7276 11.4559 14.803 12.2013C16.8449 11.6442 18.9879 11.109 21.232 10.6094C23.6346 10.0761 25.9521 9.62812 28.1744 9.25344L28.1724 9.25542Z" fill="#0075FF"/>
<path d="M17.0767 5.08027C17.0767 5.08027 17.0668 5.08622 17.0609 5.09018C17.0668 5.08622 17.0708 5.08424 17.0767 5.08027ZM16.3393 5.66706C16.2699 5.73447 16.2005 5.80385 16.1311 5.8772C16.2005 5.80385 16.2699 5.73248 16.3393 5.66706Z" fill="#0075FF"/>
<path d="M29.6669 36.125C29.6669 37.1678 27.3177 36.8308 25.5058 36.8308C23.6939 36.8308 21.5449 37.1559 21.5449 36.1131C21.5449 35.5244 22.1496 35.0367 22.9901 34.9316C23.6106 34.8523 24.7723 33.7263 25.5613 33.7263C27.3732 33.7263 29.6669 35.0843 29.6669 36.127V36.125Z" fill="#FFC86D"/>
<path d="M37.4996 38.9026C37.4996 38.9026 32.2759 37.2215 26.4753 37.1204C26.4753 37.1204 30.4164 38.1413 31.5741 38.7737" fill="#F2AF53"/>
<path d="M12.1501 40.2326L16.4619 40.3575C17.0071 38.6784 20.6349 37.4453 20.6349 37.4453C16.1368 38.0559 12.1501 40.2306 12.1501 40.2306V40.2326Z" fill="#F2AF53"/>
<path d="M26.7146 40.9801C26.784 41.2319 27.1527 41.3786 27.5393 41.3092C27.9259 41.2398 28.1836 40.9781 28.1142 40.7284C28.0448 40.4786 27.799 40.5083 27.4124 40.5777C27.0259 40.6471 26.6452 40.7284 26.7126 40.9801H26.7146Z" fill="#F2AF53"/>
<path d="M25.6442 41.4143C25.6898 41.5848 25.9396 41.6839 26.2013 41.6363C26.463 41.5888 26.6354 41.4143 26.5898 41.2438C26.5442 41.0733 26.3777 41.0951 26.116 41.1427C25.8544 41.1903 25.5986 41.2438 25.6442 41.4143Z" fill="#F2AF53"/>
<path d="M9.85718 40.0062C9.87502 40.2758 10.22 40.5018 10.6283 40.5117C11.0367 40.5197 11.3519 40.3095 11.3341 40.0379C11.3162 39.7683 11.0585 39.7505 10.6521 39.7406C10.2437 39.7326 9.84131 39.7346 9.85915 40.0062H9.85718Z" fill="#F2AF53"/>
<path d="M8.6792 40.2242C8.69109 40.4065 8.92502 40.5592 9.20058 40.5651C9.47613 40.5711 9.68824 40.4284 9.67635 40.246C9.66445 40.0636 9.49 40.0517 9.21643 40.0458C8.94087 40.0398 8.66929 40.0418 8.68118 40.2242H8.6792Z" fill="#F2AF53"/>
<path d="M39.9691 38.6129C39.9553 38.5654 39.9216 38.5198 39.8859 38.4841C39.6619 38.2601 39.309 38.2522 38.9997 38.2323C38.5557 38.2046 38.0601 38.0936 37.622 38.1193C37.051 38.153 37.3999 38.4266 37.7072 38.5297C38.0799 38.6546 39.6797 39.287 39.9612 38.724C39.979 38.6883 39.979 38.6486 39.9671 38.6129H39.9691Z" fill="#F2AF53"/>
<path d="M37.0273 38.1532C37.0174 38.1195 36.9995 38.0877 36.9777 38.062C36.8489 37.9014 36.6566 37.8935 36.4881 37.8776C36.2462 37.8538 35.9726 37.7706 35.7347 37.7864C35.4255 37.8062 35.6217 38.0005 35.7922 38.0778C35.9984 38.169 36.8865 38.6309 37.0233 38.2344C37.0312 38.2087 37.0312 38.1829 37.0233 38.1551L37.0273 38.1532Z" fill="#F2AF53"/>
<path d="M37.6718 37.5681C37.646 37.5423 37.6163 37.5185 37.5905 37.5007C37.4498 37.4075 37.3368 37.4194 37.2337 37.4254C37.0811 37.4333 36.9126 37.4095 36.7559 37.4392C36.5319 37.4848 36.6092 37.6216 36.7282 37.6732C36.8907 37.7425 38.0405 38.3531 37.7234 37.6395C37.7115 37.6137 37.6936 37.5879 37.6718 37.5661V37.5681Z" fill="#F2AF53"/>
<path d="M30.7252 30.8262C29.2681 30.8262 28.0172 30.6557 27.4622 30.4119L27.7734 33.9445C27.9379 35.9309 33.453 35.9309 33.6156 33.9445L33.9248 30.4376C33.342 30.6676 32.1288 30.8262 30.7232 30.8262H30.7252Z" fill="#00A7FF"/>
<path d="M27.1533 29.0896V30.1304C27.1533 30.515 28.7531 30.8282 30.7256 30.8282C32.6981 30.8282 34.2979 30.5169 34.2979 30.1304V29.0896H27.1533Z" fill="#00A7FF"/>
<path d="M30.7256 29.7872C32.6986 29.7872 34.2979 29.4748 34.2979 29.0894C34.2979 28.704 32.6986 28.3916 30.7256 28.3916C28.7527 28.3916 27.1533 28.704 27.1533 29.0894C27.1533 29.4748 28.7527 29.7872 30.7256 29.7872Z" fill="#00BAFF"/>
<path d="M30.7256 29.7872C32.6986 29.7872 34.2979 29.4748 34.2979 29.0894C34.2979 28.704 32.6986 28.3916 30.7256 28.3916C28.7527 28.3916 27.1533 28.704 27.1533 29.0894C27.1533 29.4748 28.7527 29.7872 30.7256 29.7872Z" fill="#00BAFF"/>
<path d="M30.7252 29.6126C32.5558 29.6126 34.0398 29.3783 34.0398 29.0893C34.0398 28.8002 32.5558 28.5659 30.7252 28.5659C28.8946 28.5659 27.4106 28.8002 27.4106 29.0893C27.4106 29.3783 28.8946 29.6126 30.7252 29.6126Z" fill="black"/>
<path d="M30.7255 27.47C29.4746 27.47 28.3922 28.1499 27.8589 28.8993C27.7697 29.0242 27.6964 29.153 27.6409 29.2799C28.1266 29.4742 29.3239 29.611 30.7255 29.611C32.1271 29.611 33.3245 29.4742 33.8101 29.2799C33.7546 29.153 33.6813 29.0262 33.5921 28.8993C33.0608 28.1499 31.9764 27.47 30.7255 27.47Z" fill="#FFC86D"/>
<path d="M32.8647 29.1569C32.8746 29.2164 32.9717 29.26 33.0788 29.256C33.1878 29.252 33.2671 29.1985 33.2572 29.139C33.2473 29.0796 33.1779 29.0796 33.0689 29.0855C32.9598 29.0895 32.8528 29.0974 32.8627 29.1569H32.8647Z" fill="#F2AF53"/>
<path d="M32.3888 29.2718C32.3947 29.3115 32.4601 29.3412 32.5335 29.3392C32.6068 29.3373 32.6604 29.3016 32.6544 29.2599C32.6485 29.2183 32.6009 29.2203 32.5275 29.2223C32.4542 29.2243 32.3808 29.2302 32.3888 29.2699V29.2718Z" fill="#F2AF53"/>
<path d="M29.4251 29.3609C29.4351 29.4144 29.5401 29.46 29.661 29.466C29.782 29.4719 29.8712 29.4323 29.8613 29.3788C29.8514 29.3252 29.776 29.3213 29.6551 29.3153C29.5342 29.3113 29.4152 29.3074 29.4251 29.3609Z" fill="#F2AF53"/>
<path d="M30.9814 29.5732C30.8822 28.6355 30.682 27.8921 30.3391 27.4937C30.2399 27.5055 30.1408 27.5194 30.0457 27.5373C30.1428 27.6661 30.5512 28.2965 30.4917 29.6029C30.4917 29.6029 30.4917 29.6069 30.4917 29.6089C30.569 29.6089 30.6463 29.6089 30.7236 29.6089C30.8109 29.6089 30.8961 29.6089 30.9814 29.6069C30.9814 29.5871 30.9814 29.5752 30.9814 29.5712V29.5732Z" fill="black"/>
<path d="M33.2429 30.6237C32.4598 30.7962 31.0484 30.9924 29.2483 30.7644C28.4573 30.695 27.821 30.5702 27.4661 30.4155H27.4622L27.7932 34.1445L28.3701 34.4834L28.0807 31.1054C28.0747 31.036 28.1322 30.9785 28.2016 30.9845C28.9192 31.044 32.3548 31.2759 33.9248 30.4433C33.9248 30.4433 33.9149 30.4472 33.8971 30.4532C33.7246 30.5186 33.5046 30.5781 33.2409 30.6276L33.2429 30.6237Z" fill="black"/>
<path d="M31.2272 32.6699C31.5239 32.6699 31.7644 32.4302 31.7644 32.1346C31.7644 31.839 31.5239 31.5994 31.2272 31.5994C30.9305 31.5994 30.6899 31.839 30.6899 32.1346C30.6899 32.4302 30.9305 32.6699 31.2272 32.6699Z" fill="#CFD9E2"/>
<path d="M31.5701 32.0254C31.5701 31.6685 31.5602 29.0735 31.5602 29.0537C31.5463 28.7227 31.5007 28.4392 31.4869 28.3619C31.4175 27.9951 31.0269 26.5361 29.7978 26.5083C29.5223 26.5024 29.2864 26.6054 29.11 26.8017C28.7749 27.1704 28.7075 28.0942 28.7075 28.0942C28.7075 28.0942 28.7293 28.0804 28.765 28.0605C28.9355 27.9515 29.1199 27.8524 29.3141 27.7691C29.328 27.7612 29.3419 27.7552 29.3538 27.7473C29.3657 27.6878 29.3776 27.6304 29.3915 27.5768C29.3915 27.5709 29.439 27.4123 29.441 27.4083C29.4549 27.3707 29.4688 27.3369 29.4827 27.3052C29.5223 27.2259 29.6036 27.1724 29.6928 27.1724C30.458 27.1744 30.8347 28.1537 30.9833 29.5731C30.9893 29.6346 30.9833 31.6923 30.9833 32.0254H31.5721H31.5701Z" fill="#CFD9E2"/>
<path d="M30.2003 26.996C29.8474 26.6927 29.324 26.6689 29.0643 27.0595C28.878 27.339 28.7749 28.0527 28.7749 28.0527C28.7749 28.0527 28.7868 28.0467 28.8027 28.0388C28.9632 27.9377 29.1337 27.8485 29.3141 27.7711C29.328 27.7632 29.3399 27.7573 29.3538 27.7493C29.3538 27.7493 29.4013 27.4777 29.4747 27.3152C29.5124 27.2319 29.5976 27.1725 29.6908 27.1744C30.456 27.1764 30.8327 28.1557 30.9813 29.5751C30.9813 29.5751 31.1062 27.7791 30.2003 26.998V26.996Z" fill="#9FA9BE"/>
<path d="M27.6191 34.1943C27.8669 34.0773 28.2455 33.558 28.4239 33.7265C28.9612 34.232 29.9425 33.9961 30.8286 33.8692C31.1795 33.8196 32.1806 34.2359 32.5295 34.23C33.6278 34.2161 33.1976 33.8633 33.6456 33.6214C34.0223 33.4172 34.1967 33.9683 34.4108 34.2122C34.6269 34.458 34.6824 34.9813 34.3851 35.1181C33.491 35.5305 33.4236 35.6752 31.2885 35.5384C30.3271 35.4769 29.7224 35.8794 28.64 35.8794C27.8946 35.8794 27.9601 35.2291 27.7321 35.1181C26.4177 34.4758 26.384 34.7791 27.6171 34.1943H27.6191Z" fill="#FFC86D"/>
</svg>
