<svg width="46" height="46" viewBox="0 0 46 46" fill="none" xmlns="http://www.w3.org/2000/svg">
<path d="M31.082 40.7876C31.1661 40.7725 34.0281 40.326 35.4645 40.1039C36.1072 40.0047 36.8793 39.8559 37.4163 39.4871L45.8771 33.6963C46.0885 33.5518 46.013 33.2218 45.7585 33.1851L36.1935 31.7983L31.082 40.7854V40.7876Z" fill="black"/>
<path d="M31.082 40.7876C31.1661 40.7725 34.0281 40.326 35.4645 40.1039C36.1072 40.0047 36.8793 39.8559 37.4163 39.4871L45.8771 33.6963C46.0885 33.5518 46.013 33.2218 45.7585 33.1851L36.1935 31.7983L31.082 40.7854V40.7876Z" fill="black"/>
<path d="M40.231 5.39815L31.4424 11.3917V40.7166C31.7163 40.6476 32.0053 40.5376 32.2662 40.3586L39.8062 35.217C40.2159 34.9387 40.4596 34.475 40.4596 33.979V6.09477C40.4596 5.76695 40.3712 5.53618 40.231 5.396V5.39815Z" fill="#B7C4DA"/>
<path d="M30.3934 40.824L30.3894 40.822H30.3875L30.3934 40.824Z" fill="#E1EDFD"/>
<path d="M10.8219 9.50237L9.9355 9.42041L9.83196 10.0113C9.77804 10.3241 9.75 10.6411 9.75 10.9582V38.0228C9.75 38.5383 10.1425 38.9696 10.658 39.0171L30.392 40.8244C30.392 40.8244 30.888 40.8589 31.4509 40.7144V11.3916L10.8241 9.50237H10.8219Z" fill="#E1EDFD"/>
<path d="M31.4486 11.3895L9.93527 9.42041C9.74332 9.71157 9.68293 10.0006 9.66568 10.1213C9.66568 10.1213 9.22139 13.9646 9.17826 14.3399C9.13944 14.672 9.23863 15.36 9.72389 15.5541L9.74977 15.5865L9.93527 15.6037L31.4486 17.5728V11.3895Z" fill="#323C4E"/>
<path d="M31.4422 11.3894C31.2502 11.6806 31.1898 11.9696 31.1726 12.0903C31.1726 12.0903 30.7283 15.9336 30.6851 16.3089C30.642 16.6842 30.7736 17.5188 31.4422 17.5727V11.3894Z" fill="#252E3D"/>
<path d="M40.2178 5.38289C40.015 5.19526 39.7433 5.17585 39.7411 5.17585L19.4788 3.32107C19.0172 3.27793 18.5557 3.39871 18.1718 3.65967L10.3623 8.98461C10.1725 9.11402 10.0366 9.26715 9.93311 9.42027L31.4399 11.3894L40.2285 5.39583C40.2285 5.39583 40.2221 5.38505 40.2178 5.38073V5.38289Z" fill="#3D485E"/>
<path d="M22.7484 14.1111L29.1733 14.6999C29.3372 14.715 29.4817 14.5964 29.5011 14.4346L29.6672 13.009C29.6866 12.8408 29.5636 12.6877 29.3954 12.6726L22.9705 12.0838C22.8066 12.0687 22.6621 12.1873 22.6427 12.3491L22.4766 13.7747C22.4572 13.9429 22.5802 14.096 22.7484 14.1111Z" fill="black"/>
<path d="M40.4596 6.09672C40.4596 5.7689 40.3712 5.53814 40.231 5.39795L31.4424 11.3915V17.5748L40.4596 11.426V6.09672Z" fill="#252E3D"/>
<path d="M20.3351 12.0708C20.8117 12.1722 21.1525 12.6596 21.0921 13.16C21.0317 13.6603 20.5982 13.9838 20.1194 13.8825C19.6428 13.7811 19.302 13.2937 19.3624 12.7933C19.4228 12.293 19.8563 11.9695 20.3351 12.0708Z" fill="#647591"/>
<path d="M20.5547 11.9609C20.3735 11.9221 20.1967 11.9458 20.0457 12.017L19.8279 12.1227C19.9789 12.0537 20.1535 12.0299 20.3347 12.0688C20.8113 12.1701 21.1521 12.6576 21.0917 13.1579C21.0551 13.462 20.8803 13.7014 20.6409 13.82L20.8545 13.7143C21.0982 13.5979 21.275 13.3563 21.3117 13.0501C21.3721 12.5497 21.0313 12.0623 20.5547 11.9609Z" fill="#252E3D"/>
<path d="M17.827 11.8401C18.3037 11.9415 18.6444 12.4289 18.584 12.9293C18.5237 13.4296 18.0902 13.7531 17.6114 13.6518C17.1347 13.5504 16.794 13.063 16.8543 12.5626C16.9147 12.0623 17.3482 11.7387 17.827 11.8401Z" fill="#647591"/>
<path d="M18.0469 11.7322C17.8657 11.6934 17.6889 11.7171 17.5379 11.7882L17.3201 11.8939C17.471 11.8249 17.6457 11.8012 17.8269 11.84C18.3035 11.9414 18.6443 12.4288 18.5839 12.9292C18.5472 13.2332 18.3725 13.4726 18.1331 13.5913L18.3467 13.4856C18.5904 13.3691 18.7672 13.1276 18.8039 12.8213C18.8643 12.321 18.5235 11.8335 18.0469 11.7322Z" fill="#252E3D"/>
<path d="M28.0734 28.7056C27.7779 33.0233 24.0748 35.8702 19.7678 35.303C16.7765 34.9104 12.2366 30.5841 12.532 26.2663C12.8275 21.9485 16.3689 18.1268 20.6607 18.7997C24.9526 19.4726 28.3688 24.3878 28.0734 28.7056Z" fill="black"/>
<path d="M7.64682 20.9371L7.21547 20.8659C6.30318 20.7063 5.33051 20.8357 4.3643 21.3016C1.21333 22.8242 -0.647925 27.3512 0.208293 31.4101C0.805704 34.244 2.56992 36.0988 4.65116 36.4461L5.16446 36.5323C6.0595 36.6768 7.01492 36.5453 7.96172 36.088C11.1127 34.5654 12.9739 30.0384 12.1177 25.9795C11.5182 23.1326 9.74099 21.2714 7.64682 20.9371ZM2.26581 30.9292C1.60586 27.8019 3.03146 24.2002 5.37797 23.0658C5.49659 23.0097 5.61735 22.9579 5.73597 22.9148C6.13496 22.7703 6.53182 22.7078 6.91571 22.7185C8.22916 23.1456 9.30319 24.4784 9.7065 26.3979C10.3665 29.5251 8.94087 33.1269 6.59221 34.2613C6.47359 34.3174 6.3528 34.3691 6.23418 34.4123C5.83519 34.5568 5.43836 34.6193 5.05446 34.6107C3.74102 34.1837 2.66696 32.8508 2.26365 30.9313L2.26581 30.9292Z" fill="#3D485E"/>
<path d="M19.8902 18.6057C24.0527 18.9702 27.443 22.7617 27.4603 27.0751C27.4775 31.3886 24.1174 34.5891 19.9549 34.2246C15.7924 33.8602 12.4042 30.0686 12.3848 25.7552C12.3676 21.4418 15.7277 18.2412 19.8902 18.6057Z" fill="#252E3D"/>
<path d="M19.2713 18.9743C23.4338 19.3388 26.8241 23.1303 26.8414 27.4438C26.8586 31.7572 23.4985 34.9578 19.336 34.5933C15.1735 34.2288 11.7853 30.4373 11.7659 26.1239C11.7487 21.8104 15.1088 18.6098 19.2713 18.9743Z" fill="#3D485E"/>
<path d="M25.3059 27.4137C25.2908 23.9069 22.541 20.8142 19.1744 20.5208C19.004 20.5057 18.8336 20.4993 18.6654 20.4993C17.4684 20.4993 16.3426 20.8832 15.4303 21.5884C15.3548 21.6466 15.2793 21.7092 15.206 21.7717C14.3153 22.8005 13.83 24.1527 13.8365 25.6258C13.8516 29.1326 16.6014 32.2254 19.968 32.5187C20.1384 32.5338 20.3088 32.5402 20.477 32.5402C21.7732 32.5402 22.9874 32.0916 23.9364 31.2699C24.0011 31.1944 24.0636 31.119 24.124 31.0413C24.8961 30.0449 25.3145 28.7811 25.3081 27.4159L25.3059 27.4137Z" fill="url(#paint0_linear_197_2123)"/>
<path d="M25.3059 27.4137C25.2908 23.9069 22.541 20.8142 19.1744 20.5208C19.004 20.5057 18.8336 20.4993 18.6654 20.4993C17.4684 20.4993 16.3426 20.8832 15.4303 21.5884C15.3548 21.6466 15.2793 21.7092 15.206 21.7717C14.3153 22.8005 13.83 24.1527 13.8365 25.6258C13.8516 29.1326 16.6014 32.2254 19.968 32.5187C20.1384 32.5338 20.3088 32.5402 20.477 32.5402C21.7732 32.5402 22.9874 32.0916 23.9364 31.2699C24.0011 31.1944 24.0636 31.119 24.124 31.0413C24.8961 30.0449 25.3145 28.7811 25.3081 27.4159L25.3059 27.4137Z" fill="black"/>
<path d="M23.378 30.8365C20.0804 30.8365 17.1386 28.022 16.8086 24.5497C16.6641 23.0378 17.0394 21.6532 17.7813 20.5684C16.9165 20.7085 16.112 21.0579 15.4262 21.5863C15.3507 21.6446 15.2752 21.7071 15.2019 21.7696C15.1199 21.8645 15.1199 21.8645 15.2019 21.7696C15.1048 21.8538 15.0099 21.94 14.9194 22.0306C13.869 23.0853 13.2953 24.5497 13.3018 26.1543C13.3169 29.6611 16.0667 32.7538 19.4334 33.0471C19.6037 33.0622 19.7741 33.0687 19.9423 33.0687C21.3722 33.0687 22.7008 32.5231 23.6864 31.5353C23.7727 31.449 23.8546 31.3584 23.9323 31.2678C23.997 31.1924 24.0595 31.1169 24.1199 31.0392C24.1911 30.9465 24.2601 30.8516 24.3248 30.7545C24.0186 30.8063 23.7015 30.8365 23.378 30.8365Z" fill="#252E3D"/>
<path d="M15.2038 21.7696C15.1068 21.8538 15.0119 21.94 14.9213 22.0306C13.871 23.0853 13.2973 24.5497 13.3038 26.1543C13.3189 29.6611 16.0687 32.7538 19.4353 33.0471C19.6057 33.0622 19.7761 33.0687 19.9443 33.0687C21.3742 33.0687 22.7027 32.5231 23.6884 31.5353C23.7746 31.449 23.8566 31.3584 23.9342 31.2678C23.9989 31.1924 24.0615 31.1169 24.1219 31.0392C24.193 30.9465 24.2621 30.8516 24.3268 30.7545C24.0205 30.8063 23.7035 30.8365 23.38 30.8365C20.0823 30.8365 17.1406 28.022 16.8106 24.5497C16.6661 23.0378 17.0413 21.6532 17.7833 20.5684C16.9184 20.7085 16.114 21.0579 15.4281 21.5863C15.3526 21.6446 15.2772 21.7071 15.2038 21.7696Z" fill="#252E3D"/>
<path d="M12.4371 25.1599L11.7167 25.093L10.7246 25.7681L11.734 25.8608L12.629 25.2505C12.5794 25.2009 12.5125 25.1664 12.4371 25.1577V25.1599Z" fill="#3D485E"/>
<path d="M12.724 28.6603V25.4748C12.724 25.3864 12.6874 25.3087 12.627 25.2505L11.7319 25.8608V29.5596L12.5385 29.0096C12.655 28.9299 12.724 28.7983 12.724 28.6581V28.6603Z" fill="#252E3D"/>
<path d="M4.86039 21.3858C1.70942 22.9085 -0.151831 27.4354 0.704387 31.4944C1.5606 35.5533 4.80863 37.6108 7.96175 36.0882C11.1127 34.5656 12.974 30.0386 12.1178 25.9797C11.2615 21.9207 8.01351 19.8632 4.86039 21.3858ZM7.08396 34.5591C4.93802 35.3355 2.86758 33.7762 2.26801 30.9293C1.60805 27.8021 3.03366 24.2004 5.38017 23.0659C5.49879 23.0098 5.61954 22.9581 5.73816 22.915C7.8841 22.1385 9.95457 23.6978 10.5541 26.5447C11.2141 29.672 9.78849 33.2737 7.43982 34.4081C7.3212 34.4642 7.20042 34.516 7.0818 34.5591H7.08396Z" fill="#252E3D"/>
<path d="M10.5542 26.5445C10.0452 24.1354 8.48371 22.6473 6.7152 22.7206C7.01283 22.8414 7.29537 23.0075 7.56065 23.2188C8.79645 23.5833 9.81657 24.8385 10.2005 26.6566C10.8238 29.6092 9.50169 32.9974 7.31694 34.0542C7.2091 34.1059 7.10127 34.1512 6.99559 34.1901C6.58797 34.3367 6.18465 34.3885 5.79428 34.3561C5.48155 34.464 5.16884 34.5243 4.86475 34.5373C5.55274 34.8133 6.31405 34.8392 7.08615 34.5589C7.20477 34.5157 7.32556 34.464 7.44417 34.4079C9.79069 33.2734 11.2163 29.6717 10.5585 26.5445H10.5542Z" fill="#3D485E"/>
<path d="M6.99106 34.1902C7.09674 34.1514 7.20673 34.1061 7.31241 34.0544C9.49933 32.9976 10.8192 29.6094 10.1959 26.6568C9.81205 24.8387 8.79192 23.5835 7.55612 23.219C8.37783 23.8746 9.01406 24.9487 9.30522 26.3268C9.96518 29.4541 8.53957 33.0558 6.1909 34.1902C6.07228 34.2463 5.95153 34.2981 5.83291 34.3412C5.81781 34.3477 5.80269 34.3498 5.7876 34.3563C6.17796 34.3887 6.58129 34.3391 6.98891 34.1902H6.99106Z" fill="#62748E"/>
<path d="M17.1641 30.3469C16.694 30.0881 16.1526 29.8638 15.9779 30.0816C15.8615 30.2283 16.2346 30.761 16.3985 30.8515C16.4675 30.8882 16.5301 30.9292 16.584 30.9702L17.1641 30.3469Z" fill="black"/>
<path d="M23.7856 27.4785C23.1386 27.4764 22.4894 27.3405 22.1249 27.1982C19.6059 26.2233 17.9884 28.091 16.0603 29.1155C15.3356 29.5015 16.056 31.0565 19.0905 30.6058C19.8475 30.4936 22.9639 31.3844 23.2982 30.1291L23.7856 27.4807V27.4785Z" fill="#BE73F9"/>
<path d="M25.2028 26.2793C24.0101 26.5899 23.6392 28.1988 22.3689 28.0996C21.0382 27.9939 20.3027 28.9579 20.3027 28.9579C20.3027 28.9579 22.5889 31.0521 24.4285 30.5971C25.0022 29.6804 25.3106 28.5848 25.3063 27.4137C25.3063 27.0298 25.2675 26.6503 25.2028 26.2793Z" fill="#0094FF"/>
<path d="M23.9343 31.2678L17.5806 35.1931C17.5806 35.1931 17.6259 36.2002 18.0119 36.3944C18.398 36.5885 20.6259 37.2161 21.9501 37.0327C22.1334 37.0069 21.9415 36.5626 21.7668 36.1959L21.7754 36.2089C21.6826 36.0191 21.6848 35.7991 21.9069 35.7797C21.9112 35.7797 21.9134 35.7797 21.9177 35.7797C22.3103 35.7667 22.7955 35.6481 23.3455 35.2923C23.7186 35.0507 23.3455 34.4576 23.1988 34.2031C23.0543 33.9486 22.5583 33.7028 22.8041 32.6417C22.9249 32.1176 23.3498 32.0011 23.9343 31.2678Z" fill="black"/>
<path d="M24.7065 30.1031C24.7065 30.1031 23.7208 29.5165 23.3219 29.3375C22.7223 29.0679 22.1465 29.4281 22.1465 29.4281C22.1465 29.4281 21.9372 28.7034 19.8711 28.3389C18.989 28.1836 17.4103 28.7379 16.6684 30.0427C15.9545 31.2936 16.6296 34.9945 16.9703 35.4022C17.2485 35.7321 20.0717 36.1851 21.1242 36.3425C21.2881 36.3662 21.4153 36.2002 21.3441 36.047C21.1975 35.7278 21.012 35.2857 21.0422 35.124C21.0422 35.124 21.7129 35.3914 22.0278 35.2771C22.3427 35.1628 22.7288 35.124 22.7482 34.6516C22.7589 34.4036 22.5497 33.8925 22.4484 33.3641C22.3341 32.7667 22.6037 32.1563 23.1342 31.8565C23.613 31.5869 24.3463 31.0413 24.7065 30.1031Z" fill="#FFDA00"/>
<path d="M21.9805 35.29C21.2321 35.4711 20.8719 33.6358 21.2321 32.5984C21.2321 32.5984 20.3608 33.6616 21.1674 35.635L21.9783 35.29H21.9805Z" fill="black"/>
<path d="M12.2362 10.8071C13.114 10.9926 13.7351 11.8898 13.6273 12.8086C13.5173 13.7273 12.7193 14.3204 11.8415 14.135C10.9637 13.9495 10.3426 13.0523 10.4504 12.1335C10.5604 11.2148 11.3584 10.6217 12.2362 10.8071Z" fill="#E1EDFD"/>
<path d="M12.6419 10.6086C12.3076 10.5374 11.9862 10.5806 11.708 10.71L11.3069 10.9062C11.5829 10.7768 11.9043 10.7358 12.2364 10.807C13.1142 10.9925 13.7354 11.8897 13.6275 12.8085C13.5607 13.367 13.2393 13.807 12.7993 14.0227L13.194 13.8307C13.6405 13.6172 13.9683 13.1751 14.0351 12.61C14.1451 11.6913 13.5218 10.7941 12.644 10.6086H12.6419Z" fill="#B7C4DA"/>
<defs>
<linearGradient id="paint0_linear_197_2123" x1="17.0651" y1="22.5891" x2="26.0888" y2="36.7523" gradientUnits="userSpaceOnUse">
<stop stop-color="#EFEFEF"/>
<stop offset="1" stop-color="#A9A6B4"/>
</linearGradient>
</defs>
</svg>
