<svg width="46" height="46" viewBox="0 0 46 46" fill="none" xmlns="http://www.w3.org/2000/svg">
<path d="M40.433 39.9316C40.433 40.2043 40.4478 40.5932 36.6476 40.739C34.2508 40.832 30.0026 40.739 24.3192 40.739C8.42944 40.739 8.20752 40.3776 8.20752 39.9316C8.20752 39.4857 15.4211 39.1243 24.3192 39.1243C33.9105 39.1243 40.4309 39.4857 40.4309 39.9316H40.433Z" fill="black"/>
<path d="M8.63648 8.07617L7.82699 17.361C7.82699 17.361 6.95408 21.1105 5.32241 25.1749C3.99299 28.4847 4.10501 33.9335 9.17121 33.9335L8.90701 36.8819C0.14842 36.8819 -1.98628 30.4567 1.78009 23.0212C4.64396 17.3674 5.10049 8.07617 8.63648 8.07617Z" fill="black"/>
<path d="M2.37823 23.9511C4.22125 20.1996 5.14488 15.6639 5.87828 13.1382C6.91604 9.55778 8.30042 8.87933 8.57518 8.77788L8.63648 8.07617C5.10049 8.07617 4.64396 17.3674 1.78009 23.0212C-1.98628 30.4567 0.14842 36.8819 8.90701 36.8819L9.00001 35.8378C0.653561 35.6285 -0.200318 29.2033 2.37823 23.9532V23.9511Z" fill="#2486FC"/>
<path d="M5.32275 25.1727C6.95442 21.1083 7.82732 17.3588 7.82732 17.3588L8.63682 8.07397C8.57552 8.07397 8.51634 8.07608 8.45716 8.08242C8.45505 8.08242 8.45294 8.08242 8.45082 8.08242C8.39376 8.08876 8.33669 8.09722 8.27963 8.10779C7.43843 9.05044 6.63316 10.2298 6.19988 13.9877C5.91455 16.4669 6.11111 20.0875 5.32275 25.1727Z" fill="black"/>
<path d="M31.3847 4.11325C29.436 3.11988 26.6334 2.3125 22.7149 2.3125C21.1678 2.3125 16.5433 2.43297 13.1975 3.88499C9.77567 5.37082 7.35986 8.88779 7.35986 12.9057V34.6246C7.35986 37.6597 9.82005 40.1199 12.8551 40.1199H31.4143C34.4494 40.1199 36.9096 37.6597 36.9096 34.6246V12.9057C36.9096 8.96599 34.3775 5.63713 31.3868 4.11325H31.3847Z" fill="#2486FC"/>
<path d="M19.1832 40.12H30.9642C33.9655 40.12 36.3982 37.6873 36.3982 34.6861V14.1042C36.3982 10.2047 34.6968 7.06607 31.4715 5.14273C30.6683 4.66295 29.9053 4.40509 28.9732 4.30575C28.075 4.21064 27.1556 4.19373 25.6845 4.20007C23.609 4.20641 20.5422 3.57869 18.1877 4.80244C15.5395 6.2925 13.7493 9.1289 13.7493 12.3838V34.6882C13.7493 37.6894 16.182 40.1222 19.1832 40.1222V40.12Z" fill="black"/>
<path d="M36.4001 24.6866V14.2181C36.4001 14.0786 36.3959 13.9391 36.3917 13.8018C36.3917 13.751 36.3895 13.6982 36.3874 13.6475C36.343 12.5907 36.174 11.5762 35.8865 10.6272C35.1595 8.32976 33.6715 6.45504 31.4734 5.14252C30.6703 4.66274 29.9073 4.40488 28.9752 4.30554C28.1932 4.22311 27.3963 4.19987 26.2339 4.19775C30.3701 5.56523 33.365 9.53237 33.365 14.2181V24.6866H36.4001Z" fill="#20262D"/>
<path d="M31.4546 4.12611C30.6029 3.67381 29.6517 3.49627 28.6901 3.43498C27.739 3.37368 26.642 3.38003 25.4732 3.35678C23.6006 3.32085 20.2697 2.75018 17.6573 4.04791C17.4269 4.17472 17.205 4.30999 16.9873 4.45583L16.9028 4.51289C14.4912 6.16358 12.906 8.93869 12.906 12.0837V28.0833C12.906 29.1803 13.2146 30.2032 13.7493 31.074V12.3817C13.7493 9.1268 15.5395 6.2904 18.1878 4.80034C20.5423 3.57658 23.6091 4.20432 25.6846 4.19798C27.1556 4.19375 28.075 4.21066 28.9733 4.30365C29.9054 4.40088 30.6663 4.66084 31.4715 5.14062C34.6968 7.06396 36.3982 10.2005 36.3982 14.1021V31.0296C36.9161 30.1694 37.2141 29.1612 37.2141 28.0833V13.8971C37.2141 9.61714 34.7074 5.855 31.4525 4.12611H31.4546Z" fill="#0662F4"/>
<path d="M35.7978 17.8324L35.8295 17.5153C35.9585 17.4688 36.0346 17.4118 36.043 17.3441L36.2417 15.3278C36.2713 15.0256 34.9228 14.6451 33.2299 14.4782C31.5369 14.3112 30.1398 14.4211 30.1102 14.7233C30.1102 14.7233 30.1102 14.7254 30.1102 14.7276L29.9116 16.7354C29.9116 16.7354 29.9116 16.7376 29.9116 16.7397C29.9052 16.8073 29.9686 16.8771 30.087 16.9489L30.0553 17.2659C29.6918 17.9127 29.4529 18.6144 29.3916 19.2421L28.3581 29.7043C28.3053 30.2453 29.7404 30.9766 31.5834 31.1584C33.4264 31.3401 34.9778 30.9048 35.0306 30.3637L36.4002 23.3445V20.3792C36.4129 19.612 36.3199 18.5848 35.8 17.8345L35.7978 17.8324Z" fill="black"/>
<path d="M35.2085 14.2856C35.2384 13.9836 33.8896 13.6032 32.1959 13.4359C30.5022 13.2687 29.1051 13.3779 29.0752 13.6799C29.0454 13.982 30.3942 14.3624 32.0879 14.5297C33.7816 14.6969 35.1787 14.5877 35.2085 14.2856Z" fill="#4F5C89"/>
<path d="M32.0887 14.5311C30.402 14.3642 29.0599 13.9858 29.0768 13.6836L28.8782 15.6915C28.8782 15.6915 28.8782 15.6936 28.8782 15.6957C28.8486 15.9979 30.197 16.3784 31.89 16.5454C33.5829 16.7123 34.98 16.6024 35.0096 16.3002L35.2083 14.2839C35.1787 14.5861 33.7816 14.696 32.0887 14.529V14.5311Z" fill="#2F3B61"/>
<path d="M34.7876 16.5664L34.796 16.4734C34.3416 16.6383 33.2066 16.6784 31.8877 16.5474C30.5689 16.4164 29.4635 16.1585 29.0513 15.907C29.0471 15.9387 29.045 15.9704 29.0429 16C29.0281 16.1458 28.9858 16.2853 28.9182 16.4164C28.6117 17.0081 28.4131 17.6359 28.356 18.2023L27.3225 28.6644C27.2696 29.2055 28.7047 29.9368 30.5478 30.1186C32.3908 30.3003 33.9421 29.8649 33.995 29.3239L35.0285 18.8617C35.0835 18.2953 35.0116 17.6422 34.8277 16.9997C34.7876 16.8602 34.7728 16.7122 34.7876 16.5685V16.5664Z" fill="#FFB41D"/>
<path d="M28.6878 16.7609C28.2397 17.1244 28.2862 17.8282 28.2249 18.4158L27.9312 23.0487L30.8817 23.7399L28.6878 16.7588V16.7609Z" fill="black"/>
<path d="M26.7812 27.2102L14.3662 31.9129L11.8193 12.2145L23.9279 7.62809C24.0843 7.56891 24.2555 7.67036 24.2767 7.83733L26.7812 27.2102Z" fill="#FF5284"/>
<path d="M28.6708 27.7912L16.9257 32.2403L14.3789 12.5419L26.4875 7.95548C26.6439 7.8963 26.8151 7.99775 26.8362 8.16472L29.2478 26.8275C29.3006 27.2438 29.0618 27.6433 28.6708 27.7912Z" fill="#FF5284"/>
<path d="M25.7204 13.2797L25.4266 11.0055C25.4076 10.8597 25.2575 10.7709 25.1222 10.8237L16.8477 13.9582C16.6849 14.0194 16.5877 14.1843 16.6088 14.3555L16.9026 16.6297C16.9216 16.7755 17.0717 16.8643 17.207 16.8115L25.4816 13.677C25.6443 13.6158 25.7415 13.4509 25.7204 13.2797Z" fill="#FF73A2"/>
<path d="M14.3789 12.54L11.8193 12.2124L14.3641 31.9108L16.9257 32.2384L14.3789 12.54Z" fill="#FF73A2"/>
<path d="M14.3791 12.54L25.1097 8.47774L23.6175 8.2854L12.887 12.3498L14.3791 12.54Z" fill="white"/>
<path d="M19.5085 8.49037C19.5021 8.43542 19.4451 8.4016 19.3922 8.42062L17.6105 9.09485C17.5513 9.1181 17.5154 9.17728 17.5217 9.24068L17.7183 10.7667L19.705 10.0142L19.5085 8.48826V8.49037Z" fill="#864EFF"/>
<path d="M22.3005 7.75477C22.2942 7.69982 22.2371 7.666 22.1843 7.68503L20.9774 8.14155C20.9183 8.1648 20.8823 8.22398 20.8887 8.28739L21.0852 9.81338L22.4971 9.27865L22.3005 7.75265V7.75477Z" fill="#FFD215"/>
<path d="M19.2195 22.8772C19.2195 22.8772 22.6202 21.5943 25.3404 21.8395C28.0605 22.0847 30.4002 23.3401 30.4002 23.3401H24.9811L19.2195 22.8751V22.8772Z" fill="black"/>
<path d="M43.7466 29.3685C46.0313 28.2483 45.8495 26.6653 45.8284 26.5215C45.7143 25.9847 45.5304 25.3696 45.2261 24.8328C44.3193 23.2244 42.2227 21.6646 40.2359 21.4004C38.8685 21.2186 37.0318 21.7914 36.3977 23.3449H39.5511C41.0877 23.3449 43.8987 25.2027 43.8987 28.3963C43.8987 28.7492 43.8374 29.0747 43.7444 29.3706L43.7466 29.3685Z" fill="#CEDBEB"/>
<path d="M30.4018 28.709C33.365 30.9494 39.8959 30.4696 41.7833 30.0363C42.5865 29.8525 43.2311 29.6221 43.7489 29.3663C43.8419 29.0704 43.9032 28.7471 43.9032 28.392C43.9032 25.1984 41.0922 23.3406 39.5556 23.3406H25.2595C27.2505 24.9342 28.5567 27.312 30.4039 28.7069L30.4018 28.709Z" fill="#EBF5FF"/>
<path d="M12.9084 20.635V26.6713L13.6905 26.6946L12.9084 20.635Z" fill="black"/>
<path d="M45.829 26.5086C45.829 26.5086 46.2961 29.0026 41.7837 30.0383C39.8963 30.4716 33.3654 30.9513 30.4022 28.711C27.4389 26.4706 25.8643 21.7024 20.6227 21.7024C15.3811 21.7024 13.6057 27.2526 13.6057 27.2526C13.2971 28.4341 13.1428 29.6515 13.1428 30.871V34.6268C13.1428 37.6619 15.6664 40.1221 18.7818 40.1221C18.7818 40.1221 31.3681 40.12 31.4167 40.1178L31.4124 40.1221C34.4454 40.1221 36.9056 37.664 36.9077 34.631C36.9077 34.631 36.9077 34.6289 36.9077 34.6268V32.8768C38.979 32.8409 40.9361 32.5534 42.2761 32.1223C47.1817 30.5371 45.829 26.5129 45.829 26.5129V26.5086ZM16.3787 28.6624V29.0386C16.3787 29.0386 16.3681 28.8948 16.3787 28.6624Z" fill="#2486FC"/>
<path d="M29.1697 31.4143C25.0187 29.0788 24.9658 24.6001 20.5168 24.6868C16.8814 24.7586 16.4249 27.6183 16.3784 28.6624V34.1027C16.3784 36.7425 18.5195 38.8836 21.1593 38.8836H32.1244C34.7643 38.8836 36.9053 36.7425 36.9053 34.1027V32.8747C34.1218 32.9233 31.1353 32.5218 29.1676 31.4143H29.1697Z" fill="#0662F4"/>
<path d="M13.3438 30.3551L12.6421 30.2071C12.3335 30.1416 12.1454 29.8288 12.2321 29.5244L12.9739 26.9607C13.0521 26.688 13.329 26.5211 13.608 26.5803C13.608 26.5803 13.9694 26.6098 13.9694 26.7261L13.9948 29.8964C13.9525 30.2092 13.6524 30.4206 13.3438 30.3551Z" fill="black"/>
<path d="M12.9549 29.9239L12.2532 29.776C11.9446 29.7105 11.7565 29.3976 11.8432 29.0933L12.585 26.5295C12.6632 26.2569 12.9401 26.0899 13.2191 26.1491L13.5382 26.2167C13.8172 26.2759 14.0032 26.5401 13.9652 26.8212L13.608 29.4674C13.5657 29.7802 13.2656 29.9916 12.957 29.926L12.9549 29.9239Z" fill="#CEDBEB"/>
<path d="M36.9078 32.8745C34.2532 32.921 31.4147 32.5575 29.4512 31.562C31.2879 33.9884 35.0458 34.2885 36.9057 34.2462C36.9057 34.1997 36.9099 34.1511 36.9099 34.1025V32.8745H36.9078Z" fill="black"/>
</svg>
