<svg width="46" height="46" viewBox="0 0 46 46" fill="none" xmlns="http://www.w3.org/2000/svg">
<path d="M4.17627 33.2631C4.17627 33.2631 7.31026 34.6948 11.6794 34.3161C16.0486 33.9374 18.6499 31.1821 22.0547 28.5241C25.4594 25.8679 31.1098 23.2471 32.3627 22.3977C32.8918 22.0385 33.3271 21.6952 33.6828 21.3643L4.17627 33.2596V33.2631Z" fill="black"/>
<path d="M16.2913 11.3165C16.2913 11.3165 17.2292 11.0811 20.0942 10.0282C22.9574 8.97526 21.5399 6.67476 25.2756 7.29059C27.6575 7.68167 28.5865 9.46544 28.5865 9.46544C28.5865 9.46544 30.0695 15.5954 27.0346 16.9721C23.9997 18.3489 16.2913 11.3147 16.2913 11.3147V11.3165Z" fill="black"/>
<path d="M28.5864 9.46539C28.5864 9.46539 27.6574 7.68162 25.2755 7.29054C21.5398 6.67648 22.9573 8.97698 20.094 10.0281C18.7934 10.5059 17.8909 10.8156 17.2927 11.0103L18.1297 11.4544C18.1297 11.4544 20.5311 10.6829 21.1806 10.2458C21.83 9.8087 22.3237 9.32028 22.7254 8.56466C23.1271 7.80727 24.0155 7.7524 24.8047 7.87097C25.9957 8.04793 26.861 8.47441 27.3813 8.95929C27.9016 9.44416 28.1705 10.152 28.006 10.9023C27.9546 11.1359 28.4201 10.9625 28.8324 10.8846C28.7262 10.0458 28.5864 9.46893 28.5864 9.46893V9.46539Z" fill="#005AD6"/>
<path d="M1.10962 28.8073C2.45806 30.8636 4.95499 31.306 6.33706 31.4494C9.25516 31.7538 11.8954 30.9875 14.2225 29.6904C14.3109 28.5738 14.6896 20.7379 8.03943 19.6584C8.03943 19.6584 5.76724 20.3592 3.55345 21.8988C2.37135 22.7199 1.05299 23.6224 0.555727 25.2451C0.412388 25.8132 0.0213058 27.1457 1.11139 28.8109L1.10962 28.8073Z" fill="#06B8FE"/>
<path d="M18.9701 10.8529L17.988 10.3344C16.7688 9.69026 15.2593 10.0973 14.532 11.2688C13.6011 12.7641 12.4013 14.6629 11.7855 15.5247C11.1697 16.3865 9.16296 18.5029 7.52783 20.1876C8.82496 20.3663 10.3858 21.2565 11.6581 22.4209C12.7022 21.4069 13.8772 20.3062 14.8859 19.4727C15.9565 18.5843 17.6943 17.3102 19.3276 16.144C21.2123 14.7974 21.0194 11.9377 18.9719 10.8547L18.9701 10.8529Z" fill="#06B8FE"/>
<path d="M14.0067 26.0275C13.5041 23.4173 9.70475 20.2497 7.18836 20.1523C7.18836 20.1523 5.76735 20.3576 3.55356 21.8954C3.08461 22.221 2.59266 22.5608 2.13964 22.9536C1.85296 23.2421 1.40525 23.8791 1.47781 24.9993C1.58398 26.6309 3.60311 28.0714 5.21346 28.3687C6.93883 28.6872 8.38284 28.5031 10.0799 27.9422C11.4425 27.4927 13.0528 26.5937 14.0049 26.0275H14.0067Z" fill="#F8F9FB"/>
<path d="M4.97461 21.0138C4.97461 21.0138 8.21831 18.1329 9.90121 16.2748C12.7609 13.116 13.3767 12.0118 14.0173 11.3606C14.7146 10.6527 15.0543 10.6563 15.0543 10.6563C15.0543 10.6563 14.9251 10.7624 14.7942 11.0172C14.7216 11.1588 14.7057 11.4243 14.7942 11.5764C14.9287 11.8118 14.8897 12.2613 14.6332 12.6771C13.8616 13.9265 11.9363 15.9562 11.2709 16.6889C10.3277 17.7276 8.89253 19.0548 8.21477 19.8299C7.93163 20.152 7.52285 20.352 7.0946 20.3644C6.88579 20.3697 6.67698 20.3661 6.4894 20.4033C5.89304 20.5201 5.34623 20.8616 4.97638 21.0103L4.97461 21.0138Z" fill="#005AD6"/>
<path d="M13.8525 29.8885C15.2292 29.1647 16.5016 28.2498 17.6607 27.2518C21.3963 24.0364 26.0433 21.612 27.8271 20.5131C29.4552 19.5115 29.8498 18.5913 29.9418 18.2745C29.9506 18.2356 29.9613 18.1967 29.9683 18.1577C30.1595 17.2446 30.025 14.3371 29.671 12.0667C29.3171 9.7963 27.9297 8.63013 27.9297 8.63013C27.9297 8.63013 28.6783 9.74852 27.6378 11.7836C26.7795 13.4629 26.2769 14.9477 24.6117 15.1635C23.9499 15.2503 22.3838 15.0273 21.1592 14.3601C19.5984 13.509 18.8127 13.1727 17.2873 14.5849C16.0963 15.6873 12.4014 19.2584 10.8371 20.7732C10.4672 21.1307 10.4796 21.7217 10.8547 22.0739C13.6702 24.7212 13.8719 28.556 13.8507 29.8885H13.8525Z" fill="#06B8FE"/>
<path d="M13.8526 29.8886C14.4808 29.5577 15.0878 29.1878 15.6718 28.7879C15.5426 27.62 15.3939 27.0732 15.2471 26.2963C14.8259 24.0896 15.6258 22.2138 16.6875 21.1202C21.8229 15.8343 22.9643 15.0132 22.9643 15.0132C22.3733 14.8823 21.7309 14.6682 21.1629 14.3585C19.6021 13.5073 18.8164 13.1711 17.291 14.5832C16.1 15.6857 12.405 19.2585 10.8407 20.7716C10.4709 21.129 10.4833 21.7201 10.8584 22.0722C13.6739 24.7196 13.8756 28.5543 13.8544 29.8868L13.8526 29.8886Z" fill="#005AD6"/>
<path d="M13.6775 20.7274C11.4743 19.3524 9.61092 18.4481 8.27664 17.9686C7.94749 17.85 7.57764 17.919 7.31043 18.1455C6.36192 18.9507 6.85033 19.3029 6.85033 19.3029L7.05561 19.11C7.05561 19.11 10.0728 20.2248 12.9006 21.9732C13.3767 22.267 13.6598 22.0298 13.8102 21.8564C14.3146 21.2777 14.0739 20.9734 13.6793 20.7274H13.6775Z" fill="#F8F9FB"/>
<path d="M15.3832 18.9895C13.157 17.5968 11.1149 16.6253 9.80894 16.128C9.51518 16.0166 9.18072 16.0873 8.96483 16.3156C8.13665 17.2004 8.65515 17.5703 8.65515 17.5703L8.87281 17.3526C8.87281 17.3526 11.5591 18.3949 14.5904 20.2619C14.8824 20.4424 15.2116 20.4972 15.5832 19.9947C15.8982 19.5699 15.7902 19.2426 15.385 18.9877L15.3832 18.9895Z" fill="#F8F9FB"/>
<path d="M17.1282 17.2977C14.8259 15.8059 12.7041 14.8503 11.3858 14.3265C11.1044 14.215 10.7841 14.284 10.5664 14.4964C9.77187 15.2768 10.3258 15.8006 10.3258 15.8006L10.5275 15.5741C10.5275 15.5741 13.0439 16.473 16.3248 18.547C16.6132 18.7293 16.9459 18.7505 17.2662 18.3152C17.5723 17.8993 17.5246 17.5543 17.1282 17.2959V17.2977Z" fill="#F8F9FB"/>
<path d="M18.8538 15.6752C17.8487 15.0292 15.8402 13.833 12.9964 12.5712C12.6779 12.4297 12.3045 12.5093 12.0674 12.7641C11.3064 13.5817 11.901 13.9799 11.901 13.9799L12.0709 13.7728C12.0709 13.7728 15.3447 15.0629 18.054 16.8856C18.3371 17.0749 18.6734 16.9351 18.9335 16.5777C19.0821 16.3742 19.2414 15.9229 18.8538 15.6734V15.6752Z" fill="#F8F9FB"/>
<path d="M29.9702 18.158C29.9702 18.158 29.8445 19.2729 27.8289 20.5134C26.0452 21.6123 21.3982 24.0367 17.6625 27.2521C14.6188 29.8729 10.8053 31.915 6.33699 31.4496C4.95492 31.3045 2.45622 30.8638 1.10954 28.8075C0.0106103 27.13 0.419392 25.7886 0.557422 25.2276C0.557422 25.2276 0 25.8665 0 26.7247V27.9688C0 29.0801 0.31499 29.9065 0.573353 30.4073C2.03328 33.2263 5.80079 33.7519 6.90325 33.8474C11.0672 34.212 15.339 32.3946 18.181 29.8976C19.3206 28.8978 20.7699 27.4096 25.1851 24.6967C26.7831 23.7146 28.2094 22.8333 29.3455 22.0848C29.6481 21.8848 29.9401 21.4283 29.9932 21.069C30.1648 19.917 30.3878 18.4712 29.9684 18.1562L29.9702 18.158Z" fill="#CFD7DE"/>
<path d="M24.1996 18.8691C25.6418 19.1381 25.9373 20.6688 25.9833 21.5943C26.7407 21.1537 27.3778 20.7909 27.829 20.5131C29.4571 19.5097 29.8517 18.5913 29.9437 18.2745C29.9526 18.2356 29.9614 18.1967 29.9703 18.1577C30.1614 17.2446 30.0269 14.3371 29.673 12.0667C29.3191 9.7963 27.9317 8.63013 27.9317 8.63013C27.9317 8.63013 28.6802 9.74852 27.6397 11.7836C26.7814 13.4629 26.2789 14.9476 24.6137 15.1635C23.9518 15.2503 22.3857 15.0273 21.1611 14.3601C20.2109 13.8416 19.5473 13.516 18.8306 13.6576L19.5897 17.1685C19.5897 17.1685 22.1079 18.4816 24.1996 18.8709V18.8691Z" fill="#005AD6"/>
<path d="M15.1057 39.0179C15.1057 39.0179 18.2397 40.4495 22.6089 40.0708C26.978 39.6921 29.5794 36.9368 32.9841 34.2788C36.3889 31.6226 42.0392 29.0018 43.2921 28.1524C48.4576 24.6539 44.752 22.4879 44.1663 22.226C38.9866 19.9149 32.6125 22.8737 29.7599 23.8629C25.3624 25.3865 15.1057 39.0161 15.1057 39.0161V39.0179Z" fill="black"/>
<path d="M15.1056 27.2395C15.1056 27.2395 11.0744 29.0374 9.85339 31.1981C9.22871 32.3041 9.23756 34.0667 9.23756 34.0667L13.7961 33.5906L15.1074 27.2395H15.1056Z" fill="black"/>
<path d="M29.9701 18.1579C30.0816 17.6288 30.0816 16.429 29.9949 15.0717C29.9949 15.0717 28.059 14.8364 26.622 15.3195C24.9745 15.8734 24.0012 17.6271 23.2668 19.448C23.5234 19.517 24.9515 19.1401 25.201 19.3931L29.8781 18.503C29.9171 18.3862 29.9454 18.2712 29.9684 18.1597L29.9701 18.1579Z" fill="black"/>
<path d="M27.2205 17.0713C27.2205 17.0713 28.1584 16.836 31.0234 15.7831C33.8866 14.7301 32.4691 12.4296 36.2048 13.0455C38.5867 13.4366 39.5157 15.2203 39.5157 15.2203C39.5157 15.2203 40.9987 21.3503 37.9638 22.727C34.9289 24.1038 27.2205 17.0696 27.2205 17.0696V17.0713Z" fill="black"/>
<path d="M39.5139 15.2203C39.5139 15.2203 38.5848 13.4365 36.2029 13.0454C32.4673 12.4314 33.8848 14.7319 31.0215 15.783C29.7209 16.2608 28.8183 16.5705 28.2202 16.7651L29.0572 17.2093C29.0572 17.2093 31.4586 16.4378 32.1081 16.0007C32.7575 15.5636 33.2512 15.0752 33.6529 14.3195C34.0546 13.5621 34.943 13.5073 35.7322 13.6259C36.9232 13.8028 37.7885 14.2293 38.3088 14.7142C38.8291 15.199 39.098 15.9069 38.9335 16.6572C38.8821 16.8908 39.3476 16.7174 39.7599 16.6395C39.6537 15.8007 39.5139 15.2238 39.5139 15.2238V15.2203Z" fill="#005AD6"/>
<path d="M12.0371 34.5622C13.3856 36.6185 15.8825 37.0609 17.2646 37.2043C20.1826 37.5086 22.8229 36.7424 25.15 35.4453C25.2384 34.3286 25.6171 26.4928 18.9669 25.4133C18.9669 25.4133 16.6947 26.1141 14.4809 27.6537C13.2988 28.4748 11.9805 29.3773 11.4832 31C11.3399 31.568 10.9488 32.9006 12.0389 34.5658L12.0371 34.5622Z" fill="#06B8FE"/>
<path d="M29.8993 16.6075L28.9172 16.089C27.698 15.4449 26.1885 15.8519 25.4612 17.0234C24.5303 18.5187 23.3305 20.4175 22.7147 21.2793C22.0989 22.1411 20.0922 24.2576 18.457 25.9422C19.7542 26.121 21.315 27.0111 22.5873 28.1755C23.6314 27.1615 24.8064 26.0608 25.8151 25.2273C26.8857 24.339 28.6235 23.0649 30.2568 21.8987C32.1415 20.552 31.9486 17.6923 29.9011 16.6093L29.8993 16.6075Z" fill="#06B8FE"/>
<path d="M24.9359 31.7821C24.4333 29.1719 20.6339 26.0043 18.1175 25.907C18.1175 25.907 16.6965 26.1123 14.4828 27.6501C14.0138 27.9757 13.5219 28.3154 13.0688 28.7083C12.7822 28.9967 12.3345 29.6338 12.407 30.754C12.5132 32.3855 14.5323 33.826 16.1427 34.1233C17.868 34.4418 19.312 34.2578 21.0091 33.6968C22.3717 33.2473 23.982 32.3484 24.9341 31.7821H24.9359Z" fill="#F8F9FB"/>
<path d="M15.9036 26.7687C15.9036 26.7687 19.1473 23.8878 20.8302 22.0297C23.6899 18.8709 24.3057 17.7667 24.9463 17.1154C25.6435 16.4076 25.9833 16.4111 25.9833 16.4111C25.9833 16.4111 25.8541 16.5173 25.7231 16.7721C25.6506 16.9137 25.6347 17.1791 25.7231 17.3313C25.8576 17.5667 25.8187 18.0162 25.5621 18.432C24.7906 19.6814 22.8652 21.7111 22.1998 22.4437C21.2566 23.4825 19.8215 24.8097 19.1437 25.5848C18.8606 25.9069 18.4518 26.1069 18.0236 26.1192C17.8147 26.1245 17.6059 26.121 17.4184 26.1582C16.822 26.275 16.2752 26.6165 15.9053 26.7651L15.9036 26.7687Z" fill="#005AD6"/>
<path d="M24.7819 35.6431C26.1587 34.9194 27.431 34.0045 28.5901 33.0064C32.3258 29.791 36.9728 27.3667 38.7565 26.2677C40.3846 25.2661 40.7792 24.3459 40.8712 24.0292C40.8801 23.9902 40.8907 23.9513 40.8978 23.9124C41.0889 22.9993 40.9544 20.0918 40.6005 17.8214C40.2466 15.5509 38.8592 14.3848 38.8592 14.3848C38.8592 14.3848 39.6077 15.5032 38.5672 17.5382C37.7089 19.2176 37.2064 20.7023 35.5412 20.9182C34.8793 21.0049 33.3132 20.7819 32.0886 20.1148C30.5278 19.2636 29.7421 18.9274 28.2167 20.3395C27.0258 21.442 23.3308 25.0131 21.7665 26.5279C21.3966 26.8853 21.409 27.4764 21.7842 27.8285C24.5996 30.4759 24.8014 34.3106 24.7801 35.6431H24.7819Z" fill="#06B8FE"/>
<path d="M24.7818 35.6432C25.41 35.3123 26.017 34.9425 26.601 34.5425C26.4718 33.3746 26.3231 32.8278 26.1763 32.0509C25.7551 29.8442 26.555 27.9684 27.6167 26.8748C32.7521 21.589 33.8935 20.7679 33.8935 20.7679C33.3025 20.6369 32.6601 20.4228 32.0921 20.1131C30.5313 19.2619 29.7456 18.9257 28.2202 20.3379C27.0292 21.4403 23.3342 25.0132 21.7699 26.5262C21.4001 26.8837 21.4125 27.4747 21.7876 27.8269C24.6031 30.4742 24.8048 34.309 24.7836 35.6415L24.7818 35.6432Z" fill="#005AD6"/>
<path d="M24.6067 26.482C22.4035 25.107 20.5401 24.2028 19.2058 23.7232C18.8767 23.6046 18.5068 23.6737 18.2396 23.9002C17.2911 24.7053 17.7795 25.0575 17.7795 25.0575L17.9848 24.8646C17.9848 24.8646 21.002 25.9795 23.8298 27.7278C24.3059 28.0216 24.589 27.7845 24.7394 27.6111C25.2438 27.0324 25.0031 26.728 24.6085 26.482H24.6067Z" fill="#F8F9FB"/>
<path d="M26.3107 24.7441C24.0845 23.3515 22.0424 22.3799 20.7364 21.8827C20.4427 21.7712 20.1082 21.842 19.8923 22.0703C19.0641 22.9551 19.5826 23.3249 19.5826 23.3249L19.8003 23.1073C19.8003 23.1073 22.4866 24.1496 25.5179 26.0165C25.8099 26.197 26.1391 26.2519 26.5107 25.7493C26.8257 25.3246 26.7177 24.9972 26.3125 24.7424L26.3107 24.7441Z" fill="#F8F9FB"/>
<path d="M28.0574 23.0525C25.7551 21.5608 23.6333 20.6052 22.315 20.0814C22.0336 19.9699 21.7133 20.0389 21.4956 20.2512C20.7011 21.0316 21.255 21.5554 21.255 21.5554L21.4567 21.3289C21.4567 21.3289 23.9731 22.2279 27.254 24.3019C27.5424 24.4842 27.8751 24.5054 28.1954 24.0701C28.5015 23.6542 28.4538 23.3091 28.0574 23.0508V23.0525Z" fill="#F8F9FB"/>
<path d="M29.7826 21.4315C28.7774 20.7856 26.7689 19.5893 23.9251 18.3276C23.6066 18.186 23.2332 18.2657 22.9961 18.5205C22.2352 19.3381 22.8297 19.7362 22.8297 19.7362L22.9996 19.5292C22.9996 19.5292 26.2734 20.8192 28.9827 22.6419C29.2658 22.8313 29.6021 22.6915 29.8622 22.334C30.0108 22.1305 30.1701 21.6793 29.7826 21.4297V21.4315Z" fill="#F8F9FB"/>
<path d="M40.8994 23.9124C40.8994 23.9124 40.7737 25.0273 38.7581 26.2678C36.9744 27.3667 32.3274 29.7911 28.5917 33.0065C25.548 35.6273 21.7345 37.6694 17.2662 37.204C15.8841 37.0589 13.3854 36.6182 12.0388 34.5619C10.9398 32.8844 11.3486 31.543 11.4866 30.982C11.4866 30.982 10.9292 31.6208 10.9292 32.4791V33.7231C10.9292 34.8345 11.2442 35.6609 11.5026 36.1617C12.9625 38.9807 16.73 39.5062 17.8325 39.6018C21.9964 39.9663 26.2682 38.149 29.1102 35.652C30.2499 34.6522 31.6992 33.164 36.1143 30.4511C37.7123 29.469 39.1386 28.5877 40.2747 27.8392C40.5773 27.6392 40.8693 27.1827 40.9224 26.8234C41.094 25.6714 41.317 24.2256 40.8976 23.9106L40.8994 23.9124Z" fill="#CFD7DE"/>
<path d="M35.1288 24.6257C36.571 24.8947 36.8665 26.4254 36.9125 27.3509C37.6699 26.9103 38.307 26.5475 38.7582 26.2697C40.3863 25.2663 40.7809 24.3479 40.8729 24.0311C40.8818 23.9922 40.8906 23.9532 40.8995 23.9143C41.0906 23.0012 40.9561 20.0937 40.6022 17.8233C40.2483 15.5529 38.8609 14.3867 38.8609 14.3867C38.8609 14.3867 39.6094 15.5051 38.5689 17.5402C37.7106 19.2195 37.2081 20.7042 35.5429 20.9201C34.881 21.0068 33.3149 20.7839 32.0903 20.1167C31.1401 19.5982 30.4765 19.2726 29.7598 19.4142L30.5189 22.9251C30.5189 22.9251 33.0371 24.2382 35.1288 24.6275V24.6257Z" fill="#005AD6"/>
</svg>
