<svg width="46" height="46" viewBox="0 0 46 46" fill="none" xmlns="http://www.w3.org/2000/svg">
<path d="M12.3118 35.3096L37.461 41.7496L44.9211 38.0189C45.0533 37.9474 45.0099 37.7479 44.8604 37.7371L12.3118 35.3096Z" fill="url(#paint0_linear_197_2186)"/>
<path d="M4.40771 19.7478L37.4614 22.2122V41.7496L4.40771 39.283V19.7478Z" fill="#2F2F35"/>
<path d="M6.26733 20.1924L35.6038 22.3815V39.7211L6.26733 37.532V20.1924Z" fill="#1A1A1E"/>
<path d="M6.26733 28.3094L35.6038 30.4963V29.8439L6.26733 27.657V28.3094Z" fill="#2F2F35"/>
<path d="M20.8955 33.5026L6.26733 32.4124V33.0648L20.8955 34.155V33.5026Z" fill="#2F2F35"/>
<path d="M20.8955 29.3997V38.6243L21.5457 38.672V29.4473L20.8955 29.3997Z" fill="#2F2F35"/>
<path d="M39.1866 21.2673L37.4613 22.2123V41.7497L39.1866 40.8047V21.2673Z" fill="#1A1A1E"/>
<path d="M4 15.4607L37.7386 17.9771V22.9232L4 20.4068V15.4607Z" fill="#37373F"/>
<path d="M4 15.4606L5.75997 14.4961L39.4985 17.0125L37.7386 17.977L4 15.4606Z" fill="#47474F"/>
<path d="M39.4985 17.0125L37.7385 17.977V22.9231L39.4985 21.9586V17.0125Z" fill="#232328"/>
<path d="M5.07275 15.5408L10.4177 20.8835L15.6391 21.2737L10.2963 15.9287L5.07275 15.5408Z" fill="#D7D7DD"/>
<path d="M15.7759 16.3384L21.1187 21.6833L26.3422 22.0713L20.9973 16.7285L15.7759 16.3384Z" fill="#D7D7DD"/>
<path d="M37.0448 22.8711L31.6999 17.5261L26.4763 17.136L31.8213 22.4809L37.0448 22.8711Z" fill="#D7D7DD"/>
<path d="M10.2963 15.9287L12.8387 15.0227L7.6152 14.6348L5.07275 15.5408L10.2963 15.9287Z" fill="white"/>
<path d="M20.9973 16.7285L23.5397 15.8225L18.3183 15.4324L15.7759 16.3384L20.9973 16.7285Z" fill="white"/>
<path d="M31.6999 17.5261L34.2423 16.6201L29.0188 16.23L26.4763 17.136L31.6999 17.5261Z" fill="white"/>
<path d="M5.99624 3.59595L38.5644 12.7599L37.5825 17.6085L5.0144 8.44237L5.99624 3.59595Z" fill="#37373F"/>
<path d="M5.99609 3.59605L7.91431 3L40.4803 12.164L38.5642 12.76L5.99609 3.59605Z" fill="#47474F"/>
<path d="M40.4804 12.1641L38.5644 12.7601L37.5825 17.6087L39.4986 17.0126L40.4804 12.1641Z" fill="#232328"/>
<path d="M7.03247 3.88867L11.2092 10.1873L16.2506 11.6048L12.074 5.30619L7.03247 3.88867Z" fill="#D7D7DD"/>
<path d="M17.3625 6.79517L21.5392 13.0938L26.5807 14.5113L22.404 8.21268L17.3625 6.79517Z" fill="#D7D7DD"/>
<path d="M36.9108 17.42L32.7341 11.1213L27.6926 9.70166L31.8693 16.0003L36.9108 17.42Z" fill="#D7D7DD"/>
<path d="M12.074 5.30628L14.7464 4.92264L9.70493 3.50513L7.03247 3.88876L12.074 5.30628Z" fill="white"/>
<path d="M22.404 8.21302L25.0765 7.82938L20.035 6.41187L17.3625 6.7955L22.404 8.21302Z" fill="white"/>
<path d="M32.7341 11.1217L35.4066 10.738L30.3651 9.31836L27.6926 9.702L32.7341 11.1217Z" fill="white"/>
<path d="M39.4985 17.0125L37.7385 17.5586V17.977L39.4985 17.0125Z" fill="#232328"/>
<path d="M5.0144 14.9036L32.515 17.5869L32.8596 16.5162L5.75999 14.4961L5.0144 14.9036Z" fill="black"/>
<path d="M33.8804 14.6306L36.8043 14.8495C37.0644 14.869 37.2638 15.0858 37.2638 15.3459V23.049C37.2638 23.3373 37.0188 23.567 36.7284 23.5453L31.3726 23.1465C31.0519 23.1227 30.8373 22.8041 30.937 22.4985L33.3667 14.9774C33.4382 14.7585 33.6484 14.6176 33.876 14.635L33.8804 14.6306Z" fill="#787889"/>
<path d="M37.2832 14.5893L34.3593 14.3704C34.2574 14.3639 34.1599 14.3878 34.0754 14.4355L33.592 14.6977C33.6766 14.65 33.7763 14.624 33.8781 14.6305L36.802 14.8494C37.0621 14.8689 37.2615 15.0857 37.2615 15.3458V23.0489C37.2615 23.2375 37.1553 23.4 37.0014 23.4846L37.4848 23.2223H37.4826C37.6343 23.1378 37.7384 22.9752 37.7384 22.7888V15.0857C37.7384 14.8256 37.5368 14.6089 37.2789 14.5893H37.2832Z" fill="#646472"/>
<path d="M36.5721 16.218C36.7652 16.032 36.7588 15.712 36.5578 15.5034C36.3569 15.2948 36.0374 15.2765 35.8443 15.4625C35.6512 15.6485 35.6576 15.9684 35.8585 16.1771C36.0595 16.3857 36.379 16.404 36.5721 16.218Z" fill="#37373F"/>
<path d="M36.5733 22.8825C36.7664 22.6965 36.76 22.3766 36.5591 22.168C36.3581 21.9593 36.0386 21.941 35.8455 22.127C35.6524 22.3131 35.6588 22.633 35.8598 22.8416C36.0607 23.0502 36.3802 23.0686 36.5733 22.8825Z" fill="#37373F"/>
<path d="M32.8497 22.6025C33.0428 22.4165 33.0364 22.0966 32.8354 21.8879C32.6345 21.6793 32.315 21.661 32.1219 21.847C31.9288 22.033 31.9351 22.353 32.1361 22.5616C32.3371 22.7702 32.6566 22.7885 32.8497 22.6025Z" fill="#37373F"/>
<defs>
<linearGradient id="paint0_linear_197_2186" x1="15.3118" y1="37.5296" x2="47.9991" y2="37.5296" gradientUnits="userSpaceOnUse">
<stop stop-color="#040000"/>
<stop offset="0.84" stop-color="#040000"/>
<stop offset="1" stop-color="#040000"/>
</linearGradient>
</defs>
</svg>
