<svg width="46" height="46" viewBox="0 0 46 46" fill="none" xmlns="http://www.w3.org/2000/svg">
<path d="M24.482 12.3787C19.9175 12.8079 17.1796 15.2519 12.6699 16.2181C8.8188 17.0432 5.10878 19.3559 5.84373 20.4906C9.5714 21.7881 10.9531 20.0163 13.9576 19.6675C16.964 19.3186 19.112 21.1981 22.1459 20.6886C25.1798 20.1771 28.4802 17.4136 31.567 17.0373C34.3637 16.6963 35.2868 15.2989 35.4377 15.0383C35.4397 15.0344 35.4612 14.9971 35.4612 14.9971C35.863 13.1588 29.0446 11.9495 24.482 12.3787Z" fill="black"/>
<path d="M8.56201 9.11113L13.5714 5.83228L25.6579 9.16601L20.6485 12.4449L8.56201 9.11113Z" fill="#46C646"/>
<path d="M11.5469 28.2024L23.6353 31.5342L20.6485 12.4451L8.56201 9.11133L11.5469 28.2024Z" fill="#2DAA2D"/>
<path d="M25.6579 9.16626L20.6484 12.4451L23.6353 31.5342L28.6447 28.2573L25.6579 9.16626Z" fill="#117F11"/>
<path d="M11.2392 7.35938L10.8943 7.58476L22.9808 10.9185L23.3257 10.6911L11.2392 7.35938Z" fill="#117F11"/>
<path d="M25.0171 46C33.9166 46 41.1311 44.1249 41.1311 41.8118C41.1311 39.4987 33.9166 37.6235 25.0171 37.6235C16.1176 37.6235 8.90308 39.4987 8.90308 41.8118C8.90308 44.1249 16.1176 46 25.0171 46Z" fill="black"/>
<path d="M19.0416 26.1482C19.0318 26.1267 19.0201 26.1051 19.0103 26.0836C19.0103 26.0836 19.0103 26.0836 19.0103 26.0816C18.7849 25.6328 18.5281 25.67 18.5281 25.67C18.6653 25.4427 18.5811 25.1762 18.5438 25.084C18.3537 24.6666 18.1636 24.2354 17.9755 23.7905C17.9715 23.7827 17.9657 23.7729 17.9617 23.7611C17.8383 23.4299 17.4796 23.3613 17.4796 23.3613C17.6834 23.0517 17.5364 22.7244 17.5364 22.7244C17.364 22.2932 17.1915 21.8503 17.0249 21.3975C16.9975 21.327 16.9622 21.2584 16.9113 21.2015C16.7466 21.0193 16.5095 20.9605 16.5095 20.9605C16.7623 20.6077 16.6153 20.2549 16.6153 20.2549C16.5918 20.1863 16.5683 20.1177 16.5448 20.0491C16.0391 18.5694 15.8118 17.0055 15.6805 16.6272C15.6373 16.5077 15.5942 16.3744 15.5178 16.2078C15.3257 15.7904 15.0004 15.2828 14.285 14.6615C13.9401 14.3636 14.044 14.5066 12.5643 13.4346C12.3173 13.2562 11.9783 13.0073 11.6568 12.5723C11.4785 12.3312 11.3609 12.1078 11.2845 11.9471L11.2335 11.7961C10.6906 12.1705 9.28541 12.6506 8.62494 12.6859L8.6759 12.8368C8.71509 13.0093 8.7582 13.2582 8.76408 13.5581C8.77388 14.097 8.65825 14.5027 8.57202 14.7947C8.05461 16.5469 8.04873 16.3705 7.95858 16.8173C7.77043 17.7443 7.82336 18.346 7.92724 18.7948C7.96839 18.9732 8.01541 19.1045 8.05461 19.226C8.18004 19.6062 8.95812 20.984 9.45984 22.4637C9.48336 22.5323 9.50687 22.6009 9.52843 22.6695C9.52843 22.6695 9.62839 23.0379 10.0439 23.1634C10.0439 23.1634 9.89297 23.3554 9.87337 23.6004C9.86749 23.6769 9.88122 23.7533 9.90277 23.8258C10.0458 24.2883 10.1811 24.7411 10.3085 25.1899C10.3085 25.1899 10.3908 25.5387 10.7416 25.6602C10.7416 25.6602 10.4986 25.9327 10.6024 26.2717C10.6064 26.2835 10.6083 26.2933 10.6103 26.3031C10.7318 26.7695 10.8455 27.2262 10.9513 27.673C10.9787 27.7691 11.0748 28.0317 11.3217 28.1277C11.3217 28.1277 11.0963 28.2551 11.1924 28.749C11.1924 28.749 11.1924 28.749 11.1924 28.7509C11.1982 28.7745 11.2022 28.798 11.2081 28.8215C11.3707 29.5878 11.8509 30.2581 12.5388 30.6305C12.5682 30.6461 12.5996 30.6618 12.6309 30.6775C13.1542 30.9342 13.6579 30.9695 14.0381 30.9401C14.3713 30.9127 14.6751 30.7755 14.9553 30.5815C15.1023 30.4796 15.6863 30.1523 15.9999 30.0503C16.3115 29.9406 16.974 29.8426 17.1523 29.8328C17.4933 29.8152 17.8147 29.7387 18.097 29.5565C18.4164 29.3487 18.7947 29.0116 19.0514 28.4883C19.0671 28.457 19.0808 28.4256 19.0946 28.3943C19.414 27.6789 19.3826 26.8538 19.0436 26.1482H19.0416Z" fill="#A0DCFE"/>
<path d="M16.627 20.2922C16.6286 20.3057 16.6303 20.3174 16.6337 20.3308C16.6337 20.3174 16.6303 20.3057 16.627 20.2922Z" fill="#8CCDF4"/>
<path d="M10.0417 23.1633C10.1044 23.1848 10.1691 23.2064 10.2436 23.2201C10.7041 23.3103 11.396 23.2926 12.1858 23.1339C14.3181 22.7302 15.7782 21.8463 16.4269 21.0584C16.4563 21.0251 16.4838 20.9898 16.5092 20.9565C16.619 20.8036 16.6523 20.6507 16.6562 20.5273C16.6543 20.4724 16.6464 20.4097 16.6347 20.3352C16.6425 20.4371 16.5935 20.5547 16.4857 20.6958C15.9291 21.4171 13.9516 22.3598 12.0721 22.8007C10.6924 23.1241 9.74576 23.0731 9.55957 22.7458C9.61249 22.8615 9.74771 23.0731 10.0437 23.1633H10.0417Z" fill="#8CCDF4"/>
<path d="M17.8499 23.5752C17.6951 23.4008 17.4795 23.3596 17.4795 23.3596C16.9523 24.2651 15.3394 25.2568 13.064 25.7487C12.4172 25.8878 11.6195 25.8937 11.1492 25.7879C11.0041 25.7546 10.8493 25.7095 10.7396 25.6585C10.7396 25.6585 10.6102 25.8075 10.5828 26.0211C10.5828 26.0486 10.5965 26.1093 10.6808 26.1877C11.0061 26.4758 11.9645 26.6169 13.1855 26.3876C14.9866 26.0564 16.7955 25.1666 17.5422 24.2964C17.7618 24.0397 17.8754 23.7986 17.8754 23.6575C17.8695 23.6085 17.8558 23.585 17.8519 23.5772L17.8499 23.5752Z" fill="#C4E9FF"/>
<path d="M17.3677 23.2381C16.8189 23.9986 14.8571 24.9903 12.9619 25.4214C11.5704 25.737 10.5219 25.6057 10.3279 25.2509C10.369 25.3567 10.4807 25.5684 10.7394 25.6586C10.8492 25.7095 11.004 25.7566 11.1491 25.7879C11.6194 25.8937 12.4171 25.8898 13.0638 25.7487C15.3393 25.2568 16.9522 24.2651 17.4794 23.3596C17.499 23.3263 17.5147 23.2969 17.5304 23.2675C17.6186 23.0696 17.5852 22.8795 17.5578 22.7854C17.5892 22.903 17.4912 23.0676 17.3677 23.2381Z" fill="#8CCDF4"/>
<path d="M18.5281 25.6685C18.5066 25.7077 18.4536 25.7841 18.4301 25.8272C17.8637 26.8875 16.0352 27.9125 13.8362 28.2966C12.9856 28.4456 12.38 28.426 11.8861 28.33C11.6666 28.2868 11.4785 28.2084 11.3178 28.1281C11.3178 28.1281 11.1473 28.2261 11.1669 28.5789C11.2982 28.961 12.6564 29.2589 14.1635 28.9179C17.215 28.2261 18.483 27.0051 18.8946 26.2839C18.971 26.1506 18.9534 26.0369 18.924 25.9389C18.7241 25.6449 18.5281 25.6724 18.5281 25.6724V25.6685Z" fill="#C4E9FF"/>
<path d="M18.4127 25.6234C17.7424 26.4955 15.9413 27.4676 13.7129 27.94C12.2273 28.2555 11.2944 28.1693 11.0161 27.838C11.0729 27.9458 11.167 28.0674 11.3199 28.1281C11.4806 28.2085 11.6668 28.2869 11.8883 28.33C12.3822 28.428 12.9877 28.4456 13.8383 28.2967C16.0353 27.9145 17.8639 26.8875 18.4323 25.8272C18.4558 25.7841 18.5087 25.7077 18.5303 25.6685C18.6361 25.4921 18.6086 25.2922 18.5734 25.1667C18.6028 25.2843 18.5459 25.4509 18.4127 25.6214V25.6234Z" fill="#8CCDF4"/>
<path d="M10.0418 23.1636C10.0418 23.1636 9.90464 23.3125 9.8772 23.5419C9.8772 23.585 9.89484 23.6849 10.0497 23.7751C10.1261 23.8182 10.2221 23.8535 10.3358 23.8809C10.3417 23.8809 10.3476 23.8848 10.3534 23.8848C10.8179 23.9926 11.5529 23.9456 12.4387 23.7692C14.2007 23.4184 16.0841 22.4972 16.725 21.6819C16.819 21.5643 16.8857 21.4291 16.9072 21.3213C16.9249 21.2233 16.8798 21.1704 16.8778 21.1685C16.7152 21.0097 16.5035 20.9568 16.5035 20.9568C16.478 20.9901 16.4506 21.0234 16.4212 21.0587C15.7725 21.8466 14.3124 22.7305 12.18 23.1342C11.3902 23.2929 10.7003 23.3106 10.2378 23.2204C10.1633 23.2067 10.0986 23.1832 10.0359 23.1636H10.0418Z" fill="#C4E9FF"/>
<path d="M11.9178 18.0997C13.8624 17.4271 15.2965 16.4705 15.1211 15.9631C14.9456 15.4558 13.2269 15.5897 11.2823 16.2623C9.33765 16.935 7.9035 17.8915 8.079 18.3989C8.25449 18.9063 9.97318 18.7723 11.9178 18.0997Z" fill="#C4E9FF"/>
<path d="M10.9435 10.0347C11.0885 10.46 7.91553 11.5379 7.77246 11.1165L8.27614 12.5923C8.42117 13.0156 11.5922 11.9338 11.4472 11.5104L10.9435 10.0347Z" fill="#2678EA"/>
<path d="M10.9426 10.0344C11.0876 10.4597 7.91461 11.5376 7.77154 11.1163C7.62847 10.6949 10.7995 9.61303 10.9426 10.0344Z" fill="#2E90FE"/>
<path d="M8.50928 12.6881L8.53476 12.7606C8.66215 13.133 11.4647 12.1805 11.3354 11.8061L11.3119 11.7375C10.816 12.1413 9.13643 12.7136 8.50928 12.6881Z" fill="#C4E9FF"/>
<path d="M8.53442 12.7604L8.64613 13.0857C8.77352 13.4581 11.5761 12.5056 11.4468 12.1312L11.3351 11.8059C11.4624 12.1822 8.65986 13.1347 8.53442 12.7604Z" fill="#8CCDF4"/>
<path d="M27.8137 10.9537C27.7197 11.0046 27.6334 11.0673 27.5511 11.1457C27.3825 11.3084 27.0415 12.3354 26.9827 13.1624C26.9808 13.1938 26.9827 13.2565 26.9827 13.2604C26.9769 13.4035 27.0396 13.5446 27.0572 13.5799C27.0572 13.5799 27.0631 13.5897 27.065 13.5956C27.0415 13.6289 27.02 13.6661 27.0023 13.7132C26.9435 13.8798 26.9377 13.9405 26.9298 14.1208C26.7319 14.2247 26.5418 14.4893 26.4183 14.8558C25.993 16.1199 26.1459 16.9509 26.1459 16.9509L33.0466 20.3904C33.0466 20.3904 34.9908 11.2888 35.0162 7.15741C35.0417 3.02601 31.9941 1.83833 29.6383 5.85017C29.4247 6.21275 29.0778 6.76151 28.9093 7.18289C28.874 7.27108 28.8407 7.40239 28.8387 7.40239C28.7956 7.5533 28.8505 7.67285 28.8818 7.7238C28.8172 7.8512 28.7799 7.98643 28.7544 8.1001C28.6055 8.20789 28.4742 8.38624 28.3409 8.6861C28.1528 9.10943 28.0411 9.36813 27.9529 9.73463C27.9215 9.8679 27.8999 10.0208 27.896 10.1717C27.8882 10.4069 27.9372 10.4696 27.9607 10.4853C27.847 10.6538 27.8294 10.8674 27.8137 10.9478V10.9537ZM31.902 15.1243C31.902 15.1243 31.9 15.1203 31.8981 15.1184C31.9118 15.138 31.9157 15.1478 31.9157 15.1478C31.9157 15.1478 31.9098 15.138 31.9 15.1223L31.902 15.1243Z" fill="#EE8B13"/>
<path d="M33.46 9.00742C33.46 9.00742 32.7839 7.55319 30.7652 7.1377C30.1596 7.01227 29.4423 7.17886 29.1346 7.41208C28.9014 7.58847 28.8014 7.88441 28.7563 8.10391C29.3482 7.86089 29.9342 7.96477 30.436 8.051C32.3762 8.38222 33.462 9.00742 33.462 9.00742H33.46Z" fill="#FFBA66"/>
<path d="M32.5801 11.9358C32.5801 11.9358 31.7099 10.5933 29.7951 10.1797C28.8662 9.97984 28.2292 10.2091 28.0313 10.4032C27.8529 10.5776 27.8333 10.8579 27.8137 10.9539C28.3076 10.8167 29.0014 10.8285 29.8775 10.9892C31.4277 11.2714 32.5801 11.9358 32.5801 11.9358Z" fill="#FFBA66"/>
<path d="M31.9178 15.1498C31.9178 15.1498 31.2358 13.9327 29.1446 13.4624C28.4018 13.2958 27.8295 13.2997 27.4905 13.3703C27.3337 13.4036 27.0946 13.4467 26.9985 13.7132C26.9397 13.8798 26.9339 13.9406 26.926 14.1228C27.4669 14.0445 27.9765 14.068 29.0466 14.2698C30.7438 14.5913 31.9158 15.1498 31.9158 15.1498H31.9178Z" fill="#FFBA66"/>
<path d="M29.1348 7.41033C29.4425 7.1771 30.1598 7.01247 30.7654 7.13594C32.786 7.55143 33.4602 9.00566 33.4602 9.00566C33.4602 9.00566 33.0232 7.32213 31.0417 6.83217C29.5581 6.46371 28.9074 7.18494 28.8408 7.39073C28.7898 7.54752 28.8486 7.67491 28.88 7.72586C28.9388 7.60827 29.0211 7.4946 29.1328 7.41033H29.1348Z" fill="#CB6300"/>
<path d="M27.9607 10.4913C27.9803 10.4599 28.0039 10.4305 28.0313 10.4031C28.2292 10.209 28.8642 9.97973 29.7952 10.1796C31.71 10.5932 32.5801 11.9357 32.5801 11.9357C31.61 10.0013 29.7383 9.74063 28.9152 9.77787C28.0921 9.81511 27.8941 10.1777 27.8941 10.1777C27.8725 10.4109 27.9353 10.4756 27.9588 10.4913H27.9607Z" fill="#CB6300"/>
<path d="M32.5801 11.9358C32.5801 11.9358 31.7099 10.5933 29.7951 10.1797C28.8662 9.97984 28.2292 10.2091 28.0313 10.4032C27.8529 10.5776 27.8333 10.8579 27.8137 10.9539C28.3076 10.8167 29.0014 10.8285 29.8775 10.9892C31.4277 11.2714 32.5801 11.9358 32.5801 11.9358Z" fill="#FFBA66"/>
<path d="M27.0669 13.5896C27.1826 13.4328 27.3649 13.3956 27.4922 13.3701C27.8313 13.2996 28.4036 13.2956 29.1464 13.4622C31.069 13.8934 31.7981 14.9537 31.9039 15.1242C31.2199 13.962 30.3341 13.3917 28.9915 13.0742C27.7411 12.7782 26.9886 13.0938 26.9827 13.2604C26.9748 13.427 27.0611 13.5896 27.0611 13.5896C27.0611 13.5896 27.065 13.5896 27.0689 13.5896H27.0669Z" fill="#CB6300"/>
<path d="M34.0458 4.80942C34.3653 6.39299 34.6534 8.76442 33.062 15.2202C32.6622 16.843 32.1507 18.4422 31.5764 19.6593L33.0444 20.3904C33.0444 20.3904 34.9886 11.2887 35.014 7.15734C35.0317 4.42724 33.7048 2.98282 32.1252 3.47475C32.2114 3.45515 33.7362 3.27876 34.0458 4.8055V4.80942Z" fill="#CB6300"/>
<path d="M27.3024 3.20048C26.5753 3.12797 25.9736 2.95157 25.7482 2.76343L25.4268 6.16968C25.4052 6.39702 26.0912 6.64985 26.9711 6.73608C27.8609 6.82427 28.6135 6.7106 28.6508 6.48129C28.6508 6.47933 28.6508 6.47542 28.6508 6.47346L28.9722 3.06721C28.7056 3.2142 28.051 3.27495 27.3024 3.20048Z" fill="#9E1B28"/>
<path d="M27.3024 3.20048C26.5753 3.12797 25.9736 2.95157 25.7482 2.76343L25.7051 3.23184C25.9324 3.41999 26.5341 3.59834 27.2592 3.66889C28.0079 3.74337 28.6625 3.68261 28.929 3.53562L28.9722 3.06721C28.7056 3.2142 28.051 3.27496 27.3024 3.20048Z" fill="#821424"/>
<path d="M25.65 2.59273L25.7558 1.46973C25.7323 1.71275 26.4672 1.98321 27.408 2.07532C28.3605 2.1694 29.164 2.04788 29.2032 1.8029C29.2032 1.80094 29.2032 1.79702 29.2032 1.79506L29.0974 2.91806C29.0974 2.91806 29.0974 2.92395 29.0974 2.92591C29.0582 3.17089 28.2527 3.2924 27.3021 3.19832C26.3594 3.10621 25.6264 2.83575 25.65 2.59273Z" fill="#9E1B28"/>
<path d="M30.299 17.1351L29.2446 28.322C29.1877 28.9198 27.2926 29.2334 24.974 29.0256L24.8251 29.0119C22.5085 28.7826 20.7055 28.1202 20.7623 27.5224L21.8167 16.3355C21.9755 14.4619 22.338 13.3643 23.4943 11.5711C24.2744 10.4049 25.2935 8.63517 25.4366 7.05356L25.5052 6.31665C25.707 6.49696 26.2793 6.66747 26.9731 6.73606C27.6865 6.80662 28.3097 6.74782 28.5488 6.60279C28.5175 6.93989 28.4881 7.24955 28.4783 7.3397C28.3235 8.91935 28.9937 10.8479 29.5425 12.1394C30.3441 14.1169 30.495 15.2634 30.299 17.1351Z" fill="#440523"/>
<path d="M29.3208 12.3983C28.8093 11.1949 28.1429 9.39575 28.286 7.92389C28.286 7.92585 28.3624 7.08898 28.4036 6.66369C28.1057 6.76169 27.5687 6.79304 26.9709 6.73425C26.4104 6.67937 25.9302 6.5559 25.6598 6.41675C25.6598 6.41675 25.5402 7.67106 25.5422 7.66518C25.4089 9.13704 24.4172 10.7814 23.6901 11.8671C22.6141 13.5369 22.279 14.5169 22.132 16.2631L21.0874 27.3383C21.0345 27.8949 22.7141 28.5123 24.8699 28.7259L25.0091 28.7396C27.1669 28.9337 28.9328 28.6397 28.9857 28.0831L30.0303 17.0098C30.2106 15.2675 30.0675 14.2405 29.3208 12.4002V12.3983ZM29.3208 12.3983C28.8093 11.1949 28.1429 9.39575 28.286 7.92389C28.286 7.92585 28.3624 7.08898 28.4036 6.66369C28.1057 6.76169 27.5687 6.79304 26.9709 6.73425C26.4104 6.67937 25.9302 6.5559 25.6598 6.41675C25.6598 6.41675 25.5402 7.67106 25.5422 7.66518C25.4089 9.13704 24.4172 10.7814 23.6901 11.8671C22.6141 13.5369 22.279 14.5169 22.132 16.2631L21.0874 27.3383C21.0345 27.8949 22.7141 28.5123 24.8699 28.7259L25.0091 28.7396C27.1669 28.9337 28.9328 28.6397 28.9857 28.0831L30.0303 17.0098C30.2106 15.2675 30.0675 14.2405 29.3208 12.4002V12.3983Z" fill="#6B1542"/>
<path d="M28.8474 11.2952C28.8778 10.9719 27.89 10.6145 26.641 10.4968C25.392 10.3792 24.3549 10.5459 24.3244 10.8692C24.294 11.1925 25.2818 11.5499 26.5308 11.6676C27.7797 11.7852 28.8169 11.6185 28.8474 11.2952Z" fill="#842859"/>
<path d="M30.299 17.1351L29.2446 28.322C29.2054 28.7316 28.3019 29.008 26.9888 29.0746L28.0432 17.8877C28.2 16.4452 28.2294 14.8401 27.9315 12.6921C27.7355 11.2829 27.516 9.20352 27.6669 7.62583L27.7492 6.76349C28.1137 6.74781 28.4018 6.69293 28.5469 6.60474C28.5155 6.94183 28.4861 7.25149 28.4763 7.34165C28.3215 8.9213 28.9918 10.8498 29.5405 12.1414C30.3421 14.1189 30.493 15.2654 30.297 17.1371L30.299 17.1351Z" fill="#440523"/>
<path d="M28.868 11.3106C28.9053 11.0832 28.429 10.8363 27.7039 10.6677C27.7333 11.0205 27.7685 11.3635 27.8058 11.6927C28.4173 11.6457 28.8347 11.5105 28.868 11.3106Z" fill="#6B1542"/>
<path d="M21.8423 16.053L21.1485 23.4103C21.1485 23.4103 21.1485 23.4221 21.1485 23.4299C21.1329 24.0394 23.0182 24.7038 25.3603 24.9155C26.0149 24.9743 26.6342 24.9919 27.1908 24.9723C27.3731 24.9665 27.5201 24.8253 27.5377 24.645L27.6671 23.3162L28.1845 17.9717C28.206 17.7541 28.0296 17.568 27.8121 17.5758C27.277 17.5915 26.6832 17.5738 26.058 17.517C25.276 17.4464 24.5469 17.3269 23.9198 17.174C22.6929 16.8761 21.8658 16.4548 21.8443 16.0569L21.8423 16.053Z" fill="#FFF7E6"/>
<path d="M29.1843 1.79311C29.2074 1.54741 28.4539 1.27549 27.5013 1.18578C26.5487 1.09606 25.7577 1.22252 25.7345 1.46822C25.7114 1.71392 26.4649 1.98581 27.4175 2.07553C28.3701 2.16524 29.1612 2.03881 29.1843 1.79311Z" fill="#BC374A"/>
<path d="M28.778 0.501553C28.7923 0.349607 28.2657 0.175767 27.6019 0.113251C26.9381 0.0507352 26.3884 0.123216 26.3741 0.275162C26.3597 0.427109 26.8863 0.600972 27.5501 0.663488C28.2139 0.726004 28.7637 0.6535 28.778 0.501553Z" fill="#D4955B"/>
<path d="M26.0831 1.44047L26.1772 0.435059C26.1615 0.609487 26.7592 0.811351 27.5255 0.885825C28.2997 0.96226 28.9523 0.879947 28.9837 0.703559C28.9837 0.703559 28.9837 0.69964 28.9837 0.69768L28.8896 1.70309C28.8896 1.70309 28.8896 1.70701 28.8896 1.70897C28.8602 1.88536 28.2076 1.96767 27.4315 1.89124C26.6651 1.81676 26.0674 1.61489 26.0831 1.44047Z" fill="#B26E2E"/>
<path d="M28.9405 0.609523C28.8699 0.538967 28.8307 0.499769 28.7601 0.431174C28.7876 0.458612 28.8013 0.486053 28.7954 0.513491C28.77 0.664401 28.2114 0.734952 27.549 0.668316C26.8865 0.603641 26.3691 0.427253 26.3946 0.276343C26.3985 0.252824 26.4162 0.231269 26.4456 0.21167C26.3632 0.266546 26.3182 0.297906 26.2358 0.354742C26.2025 0.378261 26.181 0.403736 26.1771 0.431174C26.1477 0.607562 26.7493 0.813351 27.5254 0.887826C28.2996 0.964261 28.9522 0.881942 28.9836 0.705554C28.9895 0.674196 28.9738 0.64088 28.9405 0.609523Z" fill="#B26E2E"/>
<path d="M28.3248 1.54041C28.3681 1.51579 28.3845 1.46304 28.3615 1.42258C28.3385 1.38212 28.2847 1.36928 28.2415 1.3939C28.1982 1.41851 28.1817 1.47127 28.2048 1.51173C28.2278 1.55219 28.2815 1.56502 28.3248 1.54041Z" fill="#A0591F"/>
<path d="M28.7358 1.14286C28.7457 1.08964 28.7166 1.03963 28.6708 1.03115C28.6251 1.02267 28.58 1.05893 28.5701 1.11214C28.5602 1.16536 28.5893 1.21537 28.6351 1.22385C28.6809 1.23234 28.726 1.19607 28.7358 1.14286Z" fill="#A0591F"/>
<path d="M27.5144 1.25273C27.5623 1.21744 27.5778 1.15705 27.5489 1.11782C27.52 1.07859 27.4578 1.07538 27.4098 1.11066C27.3619 1.14595 27.3464 1.20636 27.3753 1.24559C27.4041 1.28483 27.4664 1.28801 27.5144 1.25273Z" fill="#A0591F"/>
<path d="M28.4404 0.953466C28.4547 0.917243 28.4468 0.88012 28.4226 0.870544C28.3985 0.860968 28.3673 0.882568 28.3529 0.918791C28.3385 0.955013 28.3465 0.992137 28.3706 1.00171C28.3948 1.01129 28.426 0.989689 28.4404 0.953466Z" fill="#A0591F"/>
<path d="M26.3918 1.40269C26.4061 1.36646 26.3982 1.32932 26.3741 1.31974C26.3499 1.31016 26.3187 1.33179 26.3043 1.36801C26.29 1.40423 26.2979 1.44136 26.322 1.45093C26.3462 1.46051 26.3774 1.43891 26.3918 1.40269Z" fill="#A0591F"/>
<path d="M28.6476 1.68977C28.6912 1.67078 28.714 1.62643 28.6985 1.59069C28.683 1.55496 28.635 1.54137 28.5913 1.56035C28.5476 1.57933 28.5248 1.6237 28.5403 1.65944C28.5559 1.69518 28.6039 1.70875 28.6476 1.68977Z" fill="#A0591F"/>
<path d="M26.8233 1.28231C26.867 1.26332 26.8898 1.21895 26.8743 1.18322C26.8588 1.14748 26.8107 1.13391 26.7671 1.15289C26.7234 1.17187 26.7006 1.21622 26.7161 1.25196C26.7316 1.2877 26.7796 1.30129 26.8233 1.28231Z" fill="#A0591F"/>
<path d="M27.5851 1.66286C27.6069 1.63599 27.6062 1.59926 27.5836 1.58083C27.5609 1.56239 27.5248 1.56923 27.5029 1.5961C27.4811 1.62298 27.4818 1.65972 27.5044 1.67816C27.5271 1.69659 27.5632 1.68974 27.5851 1.66286Z" fill="#A0591F"/>
<path d="M26.7069 1.04592C26.7287 1.01904 26.7281 0.982317 26.7054 0.963882C26.6827 0.945446 26.6466 0.952282 26.6248 0.979158C26.6029 1.00603 26.6036 1.04278 26.6263 1.06121C26.6489 1.07965 26.685 1.0728 26.7069 1.04592Z" fill="#A0591F"/>
<path d="M27.8897 0.982706C27.9116 0.95583 27.9109 0.919089 27.8883 0.900653C27.8656 0.882218 27.8295 0.889068 27.8076 0.915944C27.7858 0.94282 27.7865 0.979547 27.8091 0.997982C27.8318 1.01642 27.8679 1.00958 27.8897 0.982706Z" fill="#A0591F"/>
<path d="M26.4915 0.786905C26.5134 0.760029 26.5127 0.723288 26.4901 0.704852C26.4674 0.686417 26.4313 0.693268 26.4094 0.720144C26.3876 0.74702 26.3883 0.783746 26.4109 0.802181C26.4336 0.820617 26.4697 0.813781 26.4915 0.786905Z" fill="#A0591F"/>
<path d="M26.9711 6.73582C26.2753 6.66723 25.703 6.49476 25.5031 6.31445L25.4404 6.98081C25.6403 7.16111 26.2126 7.33358 26.9084 7.40218C27.6218 7.47273 28.245 7.41198 28.4841 7.26891L28.5468 6.60451C28.3077 6.74954 27.6845 6.80833 26.9711 6.73778V6.73582Z" fill="#440523"/>
<path d="M27.8296 18.3051C27.8394 18.209 27.8061 18.115 27.7394 18.0444C27.6728 17.9758 27.5826 17.9386 27.4847 17.9405C27.028 17.9601 26.5282 17.9268 25.8678 17.868C25.2269 17.8112 24.5978 17.7093 24.049 17.576C22.6614 17.2389 21.7971 16.7999 21.7873 16.6333H21.7854L21.752 16.9822C22.3008 17.4094 23.661 17.7583 23.9843 17.8367C24.5449 17.9738 25.1877 18.0758 25.8423 18.1346C26.5126 18.1953 27.0221 18.2267 27.4925 18.209C27.516 18.2071 27.5337 18.2208 27.5415 18.2286C27.5493 18.2365 27.5611 18.2541 27.5591 18.2796L26.9771 24.2768C26.9731 24.3219 26.9359 24.3552 26.8908 24.3571C26.3812 24.3787 25.8325 24.363 25.2583 24.3121C22.6144 24.0632 21.1915 23.2145 21.2013 22.848H21.1974L21.1582 23.2733C21.6991 23.8201 23.1965 24.3865 25.2347 24.5786C25.6483 24.6158 26.05 24.6335 26.4322 24.6335C26.5929 24.6335 26.7497 24.6296 26.9026 24.6237C27.079 24.6158 27.226 24.4786 27.2436 24.3023L27.8257 18.3031L27.8296 18.3051Z" fill="#E5D0A3"/>
<path d="M5.83765 20.4864C5.83765 20.4864 8.85386 24.8158 9.07925 26.4013C9.29091 27.8908 8.66768 30.3406 9.17724 32.326C9.68681 34.3133 10.018 35.9576 9.14982 39.6382C8.64614 41.7784 11.5663 44.4438 16.9893 44.7652C22.4122 45.0867 24.1565 43.3953 28.0233 43.6638C31.8882 43.9323 34.975 42.6349 36.3194 40.6574C37.1602 39.4187 36.6409 36.1262 36.3194 34.9659C35.7962 33.0766 36.9642 30.2132 36.9642 27.1539C36.9642 24.0945 35.4786 23.2851 35.2199 20.5766C35.0847 19.1596 35.461 14.9929 35.461 14.9929C35.461 14.9929 34.6555 16.6568 31.5687 17.0331C28.4819 17.4094 25.1796 20.1748 22.1457 20.6844C19.1118 21.1939 16.9638 19.3144 13.9574 19.6633C10.9509 20.0121 9.56923 21.7839 5.83765 20.4845V20.4864Z" fill="#065BC1"/>
<path d="M11.5663 22.2777C14.1102 21.4134 17.3401 23.2283 20.0898 23.3792C22.8395 23.5301 26.332 21.9681 28.3996 20.6432C30.3634 19.385 34.2655 19.1753 35.2454 18.0287C35.3238 16.5138 35.461 14.9949 35.461 14.9949C35.461 14.9949 34.6555 16.6588 31.5687 17.0351C28.4819 17.4114 25.1796 20.1768 22.1457 20.6863C19.1118 21.1959 16.9638 19.3164 13.9574 19.6652C10.9509 20.0141 9.56923 21.7858 5.83765 20.4864C5.83765 20.4864 6.41973 21.3233 7.09393 22.3953C7.85436 22.5972 9.64566 22.9304 11.5663 22.2777Z" fill="#FFDA00"/>
<path d="M31.1438 21.0411C31.1438 21.0411 31.0183 20.9216 28.8782 22.1876L30.0796 32.5886L24.8369 36.9983C24.8369 36.9983 27.959 36.5044 29.2015 35.8577C30.7988 35.0267 31.7513 33.6901 32.3452 32.8532C32.7567 32.2731 32.9371 31.5597 32.8645 30.8522L31.1438 21.0391V21.0411Z" fill="black"/>
<path d="M15.8291 23.489C15.8291 23.489 16.8169 31.7538 18.1065 34.7543L15.8291 34.6426V23.489Z" fill="black"/>
<path d="M12.5758 22.9656C12.96 22.801 14.5357 22.848 15.6607 23.2929C15.7508 23.3282 15.8253 23.3909 15.8292 23.4869C15.8841 24.8373 16.0703 32.2083 17.3324 36.9747C17.3324 36.9747 15.6567 35.9968 14.5572 34.9855C14.0634 34.5327 13.7498 33.9173 13.6675 33.253L12.4543 23.1792C12.4426 23.0871 12.4935 23.0009 12.5778 22.9637L12.5758 22.9656Z" fill="#FFDA00"/>
<path d="M30.6361 20.6845C30.2029 20.8001 29.3425 21.0059 28.4586 21.8036C28.3175 21.9309 28.2039 22.0838 28.2352 22.272C28.5155 23.9594 29.513 30.4132 29.3171 35.1679C29.3171 35.1679 30.9653 33.6431 31.7806 32.3496C32.0413 31.9341 32.1569 31.4441 32.1079 30.9561L31.1985 21.0764C31.1711 20.8021 30.9046 20.612 30.6361 20.6845Z" fill="#FFDA00"/>
<path d="M29.3132 32.4045C26.9731 33.3982 21.2189 35.5011 16.772 34.3291C16.9307 35.2581 17.115 36.1557 17.3306 36.975C17.3306 36.975 23.7099 38.7055 29.3151 35.168C29.3504 34.2899 29.3465 33.3551 29.3151 32.4026L29.3132 32.4045Z" fill="#DDB305"/>
<path d="M22.1458 20.6864C24.1233 20.3532 26.2144 19.0636 28.286 18.1013C24.7896 19.7221 21.352 20.365 19.7508 20.1317C18.1555 19.9005 16.4034 19.7417 15.5391 19.6712C17.7831 19.9279 19.6705 21.1019 22.1458 20.6864Z" fill="black"/>
</svg>
