<svg width="36" height="36" viewBox="0 0 36 36" fill="none" xmlns="http://www.w3.org/2000/svg">
<path fill-rule="evenodd" clip-rule="evenodd" d="M18.006 24.375C17.385 24.375 16.8735 23.871 16.8735 23.25C16.8735 22.629 17.3715 22.125 17.9925 22.125H18.006C18.627 22.125 19.131 22.629 19.131 23.25C19.131 23.871 18.627 24.375 18.006 24.375ZM16.875 12.1575C16.875 11.5365 17.379 11.0325 18 11.0325C18.621 11.0325 19.125 11.5365 19.125 12.1575V18C19.125 18.621 18.621 19.125 18 19.125C17.379 19.125 16.875 18.621 16.875 18V12.1575ZM18 3.375C7.203 3.375 3.375 7.203 3.375 18C3.375 28.797 7.203 32.625 18 32.625C28.797 32.625 32.625 28.797 32.625 18C32.625 7.203 28.797 3.375 18 3.375Z" fill="#999999"/>
</svg>
