<svg width="147" height="20" viewBox="0 0 147 20" fill="none" xmlns="http://www.w3.org/2000/svg">
<path d="M14.8107 6.91626C15.173 6.91626 15.4668 7.20962 15.4669 7.57153V9.25415H17.1583C17.5207 9.25415 17.8146 9.54743 17.8146 9.90942C17.8145 10.2714 17.5207 10.5647 17.1583 10.5647H15.4669V12.2473C15.4669 12.6093 15.173 12.9026 14.8107 12.9026C14.4484 12.9025 14.1545 12.6092 14.1544 12.2473V10.5647H12.4708C12.1085 10.5647 11.8146 10.2714 11.8146 9.90942C11.8146 9.54743 12.1085 9.25415 12.4708 9.25415H14.1544V7.57153C14.1545 7.20969 14.4485 6.91638 14.8107 6.91626Z" fill="#1E1E23"/>
<path d="M4.16266 10.7323V7.08745C4.16266 5.28502 5.50445 2.42275 9.10685 2.42275C11.6042 2.42275 13.0774 4.04154 13.6987 5.5345C13.8132 5.80959 14.0723 6.00599 14.3702 6.00599C14.8069 6.00599 15.1292 5.59761 14.9733 5.18969C14.2299 3.24461 12.3811 1.125 9.11414 1.125C5.03774 1.125 2.85005 4.19635 2.85005 7.08745V10.6025L1.77808 13.3488C1.69057 13.5507 1.71245 13.7814 1.83642 13.9616C1.96039 14.1419 2.16457 14.25 2.38334 14.25H5.93469C6.117 15.5261 7.01396 17.0834 9.09956 17.0834C11.1852 17.0834 12.0821 15.5333 12.2644 14.25H12.7439C13.1023 14.25 13.3928 13.9595 13.3928 13.6011C13.3928 13.2428 13.1023 12.9522 12.7439 12.9522H3.3678L4.11162 10.9846C4.14808 10.9053 4.16266 10.8188 4.16266 10.7323ZM10.8424 14.25H10.9299C10.806 14.8412 10.4049 15.7857 9.09956 15.7857C7.79423 15.7857 7.39316 14.8484 7.26919 14.25H10.8424Z" fill="#1E1E23"/>
<path d="M145.04 16.9675V2.95752H146.96V16.9675H145.04ZM140.69 5.74752H135.725V3.99252H142.64V5.37252C142.64 9.36252 140.45 12.8125 136.49 15.3775L135.32 13.8625C139.025 11.5375 140.69 8.40252 140.69 5.74752Z" fill="#1E1E23"/>
<path d="M132.256 2.95752V5.68752H134.281V7.42752H132.256V10.7425H130.336V2.95752H132.256ZM126.271 3.48252H128.101V10.0675H121.066V3.48252H122.911V5.16252H126.271V3.48252ZM122.911 6.82752V8.38752H126.271V6.82752H122.911ZM132.286 13.2175H124.936V15.2575H132.541V16.9675H123.031V11.5075H132.286V13.2175Z" fill="#1E1E23"/>
<path d="M119.112 10.8175H117.192V2.95752H119.112V10.8175ZM110.547 10.5625H107.652V6.21252H112.707V5.19252H107.652V3.55752H114.582V7.81752H109.512V8.91252H110.892C112.392 8.91252 114.177 8.77752 115.857 8.50752L116.067 10.0975C114.447 10.3825 112.497 10.5625 110.547 10.5625ZM119.112 16.9675H109.602V11.5825H119.112V16.9675ZM111.522 13.2475V15.2575H117.192V13.2475H111.522Z" fill="#1E1E23"/>
<path d="M104.394 2.95752V5.40252H106.434V7.14252H104.394V9.78252H102.489V2.95752H104.394ZM100.644 6.24252V6.43752C100.644 8.52252 98.9938 9.55752 96.8638 9.55752C94.7188 9.55752 93.0688 8.52252 93.0688 6.43752V6.24252C93.0688 4.14252 94.7188 3.12252 96.8638 3.12252C98.9938 3.12252 100.644 4.14252 100.644 6.24252ZM94.9888 6.25752V6.40752C94.9888 7.41252 95.7838 7.87752 96.8638 7.87752C97.9138 7.87752 98.7238 7.41252 98.7238 6.40752V6.25752C98.7238 5.26752 97.9138 4.77252 96.8638 4.77252C95.7838 4.77252 94.9888 5.26752 94.9888 6.25752ZM104.394 14.5075H97.1038V15.4375H104.829V17.0425H95.1838V12.9625H102.489V12.1075H95.1088V10.5475H104.394V14.5075Z" fill="#1E1E23"/>
<path d="M87.8445 13.3225H85.9245V9.22752H83.4795V7.69752H85.9245V6.30252H83.4795V4.77252H85.9245V2.95752H87.8445V13.3225ZM83.0595 11.3875L79.8645 8.67252C79.2045 9.73752 78.2295 10.6975 76.9545 11.5975L75.8445 10.1575C78.2145 8.46252 79.1145 6.64752 79.1145 4.57752V3.45252H80.9895V4.57752C80.9895 5.43252 80.8695 6.22752 80.6445 6.97752L84.1995 9.97752L83.0595 11.3875ZM80.2545 12.4375V15.2275H88.3545V16.9675H78.3345V12.4375H80.2545Z" fill="#1E1E23"/>
<path d="M73.9209 16.9675H72.0009V2.95752H73.9209V16.9675ZM69.5559 14.7475H62.3859V3.91752H69.5559V14.7475ZM64.2909 5.67252V12.9925H67.6359V5.67252H64.2909Z" fill="#1E1E23"/>
<path d="M51.2973 10.4576H59.8173V12.1526H49.3923V3.82764H59.5173V5.55264H51.2973V7.12764H59.5173V8.80764H51.2973V10.4576ZM47.8473 15.9926V14.2376H61.0473V15.9926H47.8473Z" fill="#1E1E23"/>
<path d="M46.0737 13.3225H44.1537V2.95752H46.0737V13.3225ZM38.2587 11.2225C36.1137 11.2225 34.3887 9.99252 34.3887 7.36752V7.14252C34.3887 4.48752 36.1137 3.25752 38.2587 3.25752C40.3887 3.25752 42.0987 4.48752 42.0987 7.14252V7.36752C42.0987 9.99252 40.3887 11.2225 38.2587 11.2225ZM38.2587 9.54252C39.3087 9.54252 40.1937 8.85252 40.1937 7.35252V7.14252C40.1937 5.64252 39.3087 4.93752 38.2587 4.93752C37.1787 4.93752 36.3087 5.64252 36.3087 7.14252V7.35252C36.3087 8.85252 37.1787 9.54252 38.2587 9.54252ZM46.5987 16.9675H36.5637V12.3775H38.4837V15.2275H46.5987V16.9675Z" fill="#1E1E23"/>
<path d="M27.56 11.6426V14.2376H33.2V15.9926H20V14.2376H25.64V11.6426H21.32V9.91764H23.42V5.55264H21.32V3.82764H31.895V5.55264H29.795V9.91764H31.895V11.6426H27.56ZM27.935 5.55264H25.28V9.91764H27.935V5.55264Z" fill="#1E1E23"/>
</svg>
