<svg width="135" height="20" viewBox="0 0 135 20" fill="none" xmlns="http://www.w3.org/2000/svg">
<path d="M12.5258 15.2307C12.3911 16.3669 11.2713 17.2501 9.91443 17.2502C8.46696 17.2502 7.28947 16.2452 7.28943 15.0002L12.5258 15.2307ZM9.92322 1.95142C12.111 1.95148 13.7019 2.90341 14.7338 4.11743C15.7577 5.31595 16.2465 6.78504 16.2465 7.87524V10.6877L17.3324 13.4417C17.3945 13.5886 17.4143 13.8752 17.2269 14.0627C17.0395 14.2501 16.8273 14.2502 16.6644 14.2502H3.16443C3.00155 14.2502 2.78938 14.2501 2.60193 14.0627C2.41456 13.8753 2.43544 13.5418 2.49744 13.3948L3.58435 10.6877V7.87524C3.58435 5.34659 5.53175 1.95142 9.91541 1.95142H9.92322ZM5.48376 1.20532C5.7298 1.05172 6.05441 1.12588 6.20837 1.37134C6.36228 1.61677 6.28736 1.94039 6.04138 2.09399C4.90252 2.80498 3.98779 3.82964 3.41541 5.04126C3.29168 5.30319 2.97776 5.41567 2.71521 5.29224C2.45288 5.1687 2.34055 4.85582 2.46423 4.59399C3.12309 3.19933 4.17532 2.0222 5.48376 1.20532ZM13.5951 1.37036C13.7497 1.12533 14.0741 1.05202 14.3197 1.2063C15.6186 2.02224 16.6789 3.19821 17.3383 4.59399C17.462 4.85592 17.3489 5.1688 17.0863 5.29224C16.8238 5.4154 16.5108 5.30307 16.3871 5.04126C15.8153 3.83076 14.8935 2.80497 13.7601 2.09302C13.5146 1.93876 13.4405 1.61538 13.5951 1.37036Z" fill="#F73631"/>
<path d="M123.315 8.63494L122.835 7.05994C125.7 6.48994 127.125 5.67994 127.5 4.82494H123.555V3.18994H133.26V4.82494H129.42C129.375 5.10994 129.3 5.37994 129.18 5.63494L133.965 7.04494L133.365 8.63494L127.98 6.99994C126.99 7.68994 125.46 8.22994 123.315 8.63494ZM135 9.09994V10.7349H129.36V11.8899H130.065C132.315 11.8899 133.62 12.9999 133.62 14.4849C133.62 15.9849 132.315 17.0799 130.065 17.0799H126.735C124.5 17.0799 123.195 15.9849 123.195 14.4849C123.195 12.9999 124.5 11.8899 126.735 11.8899H127.44V10.7349H121.8V9.09994H135ZM131.7 14.4699C131.7 13.8849 131.115 13.5399 129.72 13.5399H127.095C125.7 13.5399 125.1 13.8849 125.1 14.4699C125.1 15.0549 125.7 15.4299 127.095 15.4299H129.72C131.115 15.4299 131.7 15.0549 131.7 14.4699Z" fill="#1E1E23"/>
<path d="M120.027 10.7799H118.107V2.91992H120.027V10.7799ZM111.462 10.5249H108.567V6.17492H113.622V5.15492H108.567V3.51992H115.497V7.77992H110.427V8.87492H111.807C113.307 8.87492 115.092 8.73992 116.772 8.46992L116.982 10.0599C115.362 10.3449 113.412 10.5249 111.462 10.5249ZM120.027 16.9299H110.517V11.5449H120.027V16.9299ZM112.437 13.2099V15.2199H118.107V13.2099H112.437Z" fill="#1E1E23"/>
<path d="M105.308 2.91992V5.36492H107.348V7.10492H105.308V9.74492H103.403V2.91992H105.308ZM101.558 6.20492V6.39992C101.558 8.48492 99.9079 9.51992 97.7779 9.51992C95.6329 9.51992 93.9829 8.48492 93.9829 6.39992V6.20492C93.9829 4.10492 95.6329 3.08492 97.7779 3.08492C99.9079 3.08492 101.558 4.10492 101.558 6.20492ZM95.9029 6.21992V6.36992C95.9029 7.37492 96.6979 7.83992 97.7779 7.83992C98.8279 7.83992 99.6379 7.37492 99.6379 6.36992V6.21992C99.6379 5.22992 98.8279 4.73492 97.7779 4.73492C96.6979 4.73492 95.9029 5.22992 95.9029 6.21992ZM105.308 14.4699H98.0179V15.3999H105.743V17.0049H96.0979V12.9249H103.403V12.0699H96.0229V10.5099H105.308V14.4699Z" fill="#1E1E23"/>
<path d="M88.7585 13.2849H86.8385V9.18992H84.3935V7.65992H86.8385V6.26492H84.3935V4.73492H86.8385V2.91992H88.7585V13.2849ZM83.9735 11.3499L80.7785 8.63492C80.1185 9.69992 79.1435 10.6599 77.8685 11.5599L76.7585 10.1199C79.1285 8.42492 80.0285 6.60992 80.0285 4.53992V3.41492H81.9035V4.53992C81.9035 5.39492 81.7835 6.18992 81.5585 6.93992L85.1135 9.93992L83.9735 11.3499ZM81.1685 12.3999V15.1899H89.2685V16.9299H79.2485V12.3999H81.1685Z" fill="#1E1E23"/>
<path d="M74.8349 16.9299H72.9149V2.91992H74.8349V16.9299ZM70.4699 14.7099H63.2999V3.87992H70.4699V14.7099ZM65.2049 5.63492V12.9549H68.5499V5.63492H65.2049Z" fill="#1E1E23"/>
<path d="M52.2114 10.42H60.7314V12.115H50.3064V3.79004H60.4314V5.51504H52.2114V7.09004H60.4314V8.77004H52.2114V10.42ZM48.7614 15.955V14.2H61.9614V15.955H48.7614Z" fill="#1E1E23"/>
<path d="M46.9877 13.2849H45.0677V2.91992H46.9877V13.2849ZM39.1727 11.1849C37.0277 11.1849 35.3027 9.95492 35.3027 7.32992V7.10492C35.3027 4.44992 37.0277 3.21992 39.1727 3.21992C41.3027 3.21992 43.0127 4.44992 43.0127 7.10492V7.32992C43.0127 9.95492 41.3027 11.1849 39.1727 11.1849ZM39.1727 9.50492C40.2227 9.50492 41.1077 8.81492 41.1077 7.31492V7.10492C41.1077 5.60492 40.2227 4.89992 39.1727 4.89992C38.0927 4.89992 37.2227 5.60492 37.2227 7.10492V7.31492C37.2227 8.81492 38.0927 9.50492 39.1727 9.50492ZM47.5127 16.9299H37.4777V12.3399H39.3977V15.1899H47.5127V16.9299Z" fill="#1E1E23"/>
<path d="M28.4741 11.605V14.2H34.1141V15.955H20.9141V14.2H26.5541V11.605H22.2341V9.88004H24.3341V5.51504H22.2341V3.79004H32.8091V5.51504H30.7091V9.88004H32.8091V11.605H28.4741ZM28.8491 5.51504H26.1941V9.88004H28.8491V5.51504Z" fill="#1E1E23"/>
</svg>
