<svg width="24" height="24" viewBox="0 0 24 24" fill="none" xmlns="http://www.w3.org/2000/svg">
<path fill-rule="evenodd" clip-rule="evenodd" d="M4.36375 4.3637C4.01228 4.71517 4.01228 5.28502 4.36375 5.63649L18.3638 19.6365C18.7152 19.988 19.2851 19.988 19.6365 19.6365C19.988 19.285 19.988 18.7152 19.6365 18.3637L5.63654 4.3637C5.28507 4.01223 4.71522 4.01223 4.36375 4.3637Z" fill="#1E1E23"/>
<path fill-rule="evenodd" clip-rule="evenodd" d="M19.6365 4.3637C19.988 4.71517 19.988 5.28502 19.6365 5.63649L5.63649 19.6365C5.28502 19.988 4.71517 19.988 4.3637 19.6365C4.01223 19.285 4.01223 18.7152 4.3637 18.3637L18.3637 4.3637C18.7152 4.01223 19.285 4.01223 19.6365 4.3637Z" fill="#1E1E23"/>
</svg>
