<svg width="66" height="22" viewBox="0 0 66 22" fill="none" xmlns="http://www.w3.org/2000/svg">
<path d="M22 11C22 13.1756 21.3549 15.3023 20.1462 17.1113C18.9375 18.9202 17.2195 20.3301 15.2095 21.1627C13.1995 21.9952 10.9878 22.2131 8.85401 21.7886C6.72022 21.3642 4.76021 20.3166 3.22183 18.7782C1.68345 17.2398 0.635805 15.2798 0.211368 13.146C-0.213069 11.0122 0.00476298 8.80047 0.837327 6.79048C1.66989 4.78049 3.07979 3.06253 4.88873 1.85383C6.69768 0.645137 8.82441 0 11 0C13.9174 0 16.7153 1.15893 18.7782 3.22183C20.8411 5.28473 22 8.08262 22 11ZM12.8398 5.83V11.3602L8.98976 5.83H5.83V16.1838H9.1575V10.637L13.0075 16.17H16.1783V5.83H12.8398Z" fill="black"/>
<path d="M61.4319 5.21944L58.3913 12.1478L54.9518 5.21944H52.3072L57.1783 14.8317L55.1703 19.3358H57.7384L64 5.2331L61.4319 5.21944ZM50.6171 15.9331H48.1037V14.9328C47.1894 15.7342 46.0108 16.1685 44.7953 16.1518C41.7901 16.1518 39.4379 13.692 39.4379 10.5763C39.4379 7.46057 41.7874 5.00079 44.7953 5.00079C46.0104 4.9833 47.189 5.41657 48.1037 6.21701V5.21944H50.6171V15.9331ZM48.3987 10.5899C48.3987 8.57019 46.9891 7.03694 45.1204 7.03694C43.2517 7.03694 41.842 8.57019 41.842 10.5899C41.842 12.6097 43.249 14.1429 45.1204 14.1429C46.9918 14.1429 48.3987 12.596 48.3987 10.5899ZM27.0082 19.3358H29.6309V15.023C30.5282 15.7695 31.6631 16.1699 32.83 16.1518C35.8352 16.1518 38.1901 13.692 38.1901 10.5763C38.1901 7.46057 35.8379 5.00079 32.83 5.00079C31.6117 4.9789 30.429 5.4126 29.5134 6.21701V5.21944H27L27.0082 19.3358ZM32.5186 7.03694C34.3872 7.03694 35.7969 8.57019 35.7969 10.5899C35.7969 12.6097 34.3872 14.1429 32.5186 14.1429C30.6499 14.1429 29.2402 12.6097 29.2402 10.5899C29.2402 8.57019 30.6335 7.03694 32.5186 7.03694Z" fill="black"/>
</svg>
