<svg width="18" height="18" viewBox="0 0 18 18" fill="none" xmlns="http://www.w3.org/2000/svg">
<path d="M11.584 15.0557C11.584 16.2699 10.4325 17.2498 9.0166 17.25C7.6005 17.25 6.44824 16.2701 6.44824 15.0557H11.584ZM3.75 1.875C3.95052 1.67502 4.27594 1.6751 4.47656 1.875L15.9814 13.3389C16.1819 13.5386 16.1825 13.8624 15.9824 14.0625C15.782 14.2625 15.4565 14.2632 15.2559 14.0635L3.75 2.59961C3.54945 2.39968 3.54951 2.07502 3.75 1.875ZM13.998 14.1855H2.15527C2.00141 14.1854 1.85458 14.1051 1.7666 13.9736C1.67855 13.842 1.66396 13.6805 1.72266 13.5342L2.83105 10.8857V7.07422C2.83112 6.07952 3.12415 4.95319 3.74023 3.95117L13.998 14.1855ZM9.00879 1.5C11.1438 1.5 12.6994 2.45858 13.7119 3.67285C14.7097 4.87248 15.1942 6.35043 15.1943 7.44043V11.2158L6.0957 2.14453C6.91015 1.74217 7.8715 1.5 9.00879 1.5Z" fill="#F73631"/>
</svg>
