<svg width="18" height="18" viewBox="0 0 18 18" fill="none" xmlns="http://www.w3.org/2000/svg">
<path d="M11.6118 15.2305C11.4771 16.3666 10.3573 17.2498 9.00049 17.25C7.55303 17.25 6.37556 16.245 6.37549 15L11.6118 15.2305ZM9.00928 1.95117C11.197 1.95127 12.787 2.90319 13.8188 4.11719C14.843 5.31578 15.3325 6.78468 15.3325 7.875V10.6875L16.4185 13.4414C16.4805 13.5883 16.5003 13.875 16.313 14.0625C16.1256 14.2499 15.9134 14.25 15.7505 14.25H2.25049C2.08763 14.25 1.87542 14.2497 1.68799 14.0625C1.50062 13.8751 1.5215 13.5416 1.5835 13.3945L2.67041 10.6875V7.875C2.67041 5.34635 4.61781 1.95117 9.00146 1.95117H9.00928ZM4.56982 1.20508C4.81586 1.05148 5.14047 1.12563 5.29443 1.37109C5.44828 1.61653 5.37342 1.94017 5.12744 2.09375C3.98856 2.80475 3.07384 3.82936 2.50146 5.04102C2.37774 5.30295 2.06382 5.41543 1.80127 5.29199C1.53891 5.16847 1.4266 4.85559 1.55029 4.59375C2.20914 3.19907 3.26137 2.02197 4.56982 1.20508ZM12.6812 1.37012C12.8357 1.12516 13.1602 1.05099 13.4058 1.20508C14.7048 2.02104 15.7649 3.19788 16.4243 4.59375C16.548 4.85568 16.4349 5.16855 16.1724 5.29199C15.9099 5.41517 15.5968 5.30282 15.4731 5.04102C14.9013 3.83051 13.9795 2.80473 12.8462 2.09277C12.6006 1.93852 12.5266 1.61514 12.6812 1.37012Z" fill="#F73631"/>
</svg>
