<svg width="24" height="24" viewBox="0 0 24 24" fill="none" xmlns="http://www.w3.org/2000/svg">
<path fill-rule="evenodd" clip-rule="evenodd" d="M2.57983 12.0001C2.57983 11.503 2.98278 11.1001 3.47983 11.1001H21.4999C21.997 11.1001 22.3999 11.503 22.3999 12.0001C22.3999 12.4972 21.997 12.9001 21.4999 12.9001H3.47983C2.98278 12.9001 2.57983 12.4972 2.57983 12.0001Z" fill="#1E1E23"/>
<path fill-rule="evenodd" clip-rule="evenodd" d="M11.6576 3.3637C12.009 3.71517 12.009 4.28502 11.6576 4.63649L4.27457 12.0195L11.6559 19.362C12.0083 19.7126 12.0098 20.2824 11.6592 20.6348C11.3087 20.9872 10.7388 20.9887 10.3865 20.6382L2.36538 12.6592C2.19586 12.4906 2.10041 12.2615 2.1001 12.0224C2.09978 11.7833 2.19463 11.5538 2.3637 11.3848L10.3848 3.3637C10.7362 3.01223 11.3061 3.01223 11.6576 3.3637Z" fill="#1E1E23"/>
</svg>
