<svg width="18" height="18" viewBox="0 0 18 18" fill="none" xmlns="http://www.w3.org/2000/svg">
<path d="M15.3222 2.6072C14.3867 1.68049 13.2303 0.942083 11.9008 0.487959C7.19781 -1.12178 2.08603 1.38144 0.483992 6.08143C-0.723979 9.62211 0.40297 13.3954 3.04357 15.7325C3.90903 16.5004 4.93655 17.1133 6.10032 17.512C10.8033 19.1218 15.9151 16.6186 17.5171 11.9186C18.6662 8.54772 17.6976 4.96273 15.3222 2.6072Z" fill="#00DE5A"/>
<path d="M9.48694 1.34774C11.5323 1.34774 13.3955 2.1162 14.8185 3.3754C13.3538 1.86131 11.3046 0.914062 9.03157 0.914062C4.57656 0.917867 0.967773 4.53568 0.967773 9.00184C0.967773 11.4137 2.0303 13.5745 3.69998 15.0582C2.29213 13.6011 1.42314 11.623 1.42314 9.43552C1.42314 4.96937 5.03572 1.34774 9.48694 1.34774Z" fill="#00A650"/>
<path d="M16.8581 9.00188C16.8581 6.87895 16.0147 4.95908 14.6484 3.54502C13.2673 2.32295 11.4627 1.57715 9.47398 1.57715C5.15401 1.57346 1.64795 5.0883 1.64795 9.41908C1.64795 11.542 2.49132 13.4619 3.85765 14.8759C5.23872 16.098 7.04331 16.8438 9.03204 16.8438C13.3557 16.8438 16.8581 13.3327 16.8581 8.99819V9.00188Z" fill="black"/>
<path d="M8.57703 16.6483C6.53167 16.6483 4.66846 15.8799 3.24544 14.6207C4.7102 16.1348 6.75936 17.082 9.0324 17.082C13.4874 17.0782 17.0962 13.4604 17.0962 8.99425C17.0962 6.58237 16.0337 4.42157 14.364 2.93793C15.7718 4.39494 16.6408 6.37314 16.6408 8.56057C16.6408 13.0267 13.0282 16.6483 8.57703 16.6483Z" fill="#00F475"/>
<path d="M16.8363 8.78506C16.8363 6.59764 15.9673 4.61944 14.5594 3.16242C13.1364 1.90322 11.277 1.13477 9.22786 1.13477C4.77664 1.13096 1.16406 4.75259 1.16406 9.21494C1.16406 11.4024 2.03306 13.3806 3.4409 14.8376C4.86392 16.0968 6.72334 16.8652 8.77249 16.8652C13.2275 16.8652 16.8363 13.2474 16.8363 8.78126V8.78506Z" fill="#00DE5A"/>
<path d="M12.2686 8.22266V5.45361H10.6481V10.0281L7.44776 5.45361H5.73156V8.22266H3.89014V9.79178H5.73156V12.5461H7.35201V7.9716L10.5524 12.5461H12.2686V9.79178H14.11V8.22266H12.2686Z" fill="black"/>
</svg>
